<svg xmlns="http://www.w3.org/2000/svg" version="1.1" x="0" y="0" width="36" height="36" viewBox="0 0 36 36" enable-background="new 0 0 36 36" xml:space="preserve">
<path fill-rule="evenodd" clip-rule="evenodd" fill="#88ACD0" d="M4.41 4.24h27.42c1.8 0 3.27 1.47 3.27 3.27v19.99c0 1.8-1.47 3.27-3.27 3.27H4.41c-1.8 0-3.27-1.47-3.27-3.27V7.51C1.14 5.71 2.61 4.24 4.41 4.24L4.41 4.24zM3.73 11.81h28.51v16.03H3.73V11.81L3.73 11.81zM5.85 13.72h2.59v2.59H5.85V13.72L5.85 13.72zM10.48 13.72h19.85v2.59H10.48V13.72L10.48 13.72zM10.48 18.49h19.85v2.59H10.48V18.49L10.48 18.49zM10.48 23.27h19.85v2.59H10.48V23.27L10.48 23.27zM5.85 18.42h2.59v2.59H5.85V18.42L5.85 18.42zM5.85 23.13h2.59v2.59H5.85V23.13L5.85 23.13z"/>
</svg>
