<svg xmlns="http://www.w3.org/2000/svg" version="1.1" xmlns:dc="http://purl.org/dc/elements/1.1/" viewBox="0 0 26.455001 26.470999" height="36px" width="36px">
<style type="text/css">
.st0{fill-rule:evenodd;clip-rule:evenodd;fill:#086D39;}
.st1{fill-rule:evenodd;clip-rule:evenodd;fill:#499945;}
.st2{fill-rule:evenodd;clip-rule:evenodd;fill:#FFFFFF;}
.st3{fill:#086D39;}
.st5{fill-rule:evenodd;clip-rule:evenodd;fill:url(#SVGID_1_);}
</style>
<g transform="translate(-1.172,-1.164)">
<path d="m7.29,1.181h14.22c3.364,0,6.117,2.753,6.117,6.118v14.219c0,3.364-2.753,6.117-6.117,6.117h-14.22c-3.365,0-6.118-2.753-6.118-6.117v-14.219c0-3.365,2.753-6.118,6.118-6.118z" fill-rule="evenodd" class="st1" fill="#499945"/>
<linearGradient id="SVGID_1_" y2="26.480101" gradientUnits="userSpaceOnUse" x2="14.0737" gradientTransform="translate(7.2896,-27.6201)" y1="47.236801" x1="2.0897999">
<stop stop-color="#86BF50" offset="0.2"/>
<stop stop-color="#9FE35F" offset="0.8"/>
</linearGradient>
<path d="M1.172,14.294v-6.995c0-3.365,2.753-6.118,6.118-6.118h14.22c3.364,0,6.117,2.753,6.117,6.118v8.875c-10.157-7.34-21.251,4.185-26.455-1.88z" fill-rule="evenodd" class="st5" fill="url(#SVGID_1_)"/>
<path fill="#086d39" class="st3" d="m16.047,15.053c2.06,0.023,3.316,0.533,3.881,1.226,0.361,0.445,0.462,0.955,0.327,1.474-0.121,0.465-0.439,0.923-0.931,1.325v0.002c-1.26,1.032-3.795,1.775-7.135,1.254-0.188-0.03-0.359-0.064-0.513-0.104-1.716-0.439-3.039-1.666-3.855-3.249-0.8-1.552-1.113-3.453-0.828-5.28,0.043-0.275,0.096-0.537,0.159-0.782,0.352-1.376,0.897-2.707,2.08-3.837,1.162-1.109,2.926-2,5.712-2.502l-0.001-0.002,0.108-0.021v0.001c0.688-0.139,3.046-0.607,6.57,0.825l-0.374,0.927c-3.258-1.324-5.387-0.897-6.003-0.773l-0.004,0.001-0.109,0.022h-0.006c-2.571,0.462-4.173,1.26-5.205,2.245-1.011,0.966-1.487,2.14-1.799,3.36-0.062,0.24-0.109,0.471-0.144,0.688-0.253,1.618,0.023,3.3,0.73,4.67,0.691,1.339,1.795,2.374,3.215,2.736,0.15,0.039,0.291,0.068,0.419,0.089,3.026,0.473,5.268-0.156,6.35-1.043l0.001,0.001c0.325-0.267,0.529-0.545,0.598-0.805,0.054-0.207,0.012-0.413-0.136-0.595-0.393-0.482-1.39-0.839-3.115-0.858l0.008-0.995z"/>
<path d="m9.058,18.466c-3.259-1.896-1.797,3.132-6.169,0.539,0.637,1.141,1.608,3.273,3.922,2.246,2.315-1.027,0.032-2.018,2.247-2.785z" fill-rule="evenodd" class="st0" fill="#086d39"/>
<path d="M3.092,6.065c-0.253,3.138,4.048,1.66,3.933,5.589,0.414-1.487,0.872-3.951-0.444-4.794-1.315-0.842-2.403,0.454-3.489-0.795z" fill-rule="evenodd" class="st0" fill="#086d39"/>
<path d="M21.232,1.164c0.694,1.631,0.408,3.18-3.857,3.336-3.403-1.566,2.565-1.66,3.857-3.336z" fill-rule="evenodd" class="st0" fill="#086d39"/>
<path d="M26.873,7.74c-0.895,1.529-3.604,1.847-5.71-0.727-0.375-1.131-1.333-1.343,0.322-1.545,0.669-2.155,3.015,1.561,5.388,2.272z" fill-rule="evenodd" class="st0" fill="#086d39"/>
<path d="m14.789,12.402,4.903-0.426c0.723-0.063,1.378,0.422,1.46,1.111s-0.439,1.333-1.162,1.396l-4.903,0.426c-0.723,0.063-1.379-0.422-1.461-1.111-0.083-0.69,0.438-1.333,1.163-1.396z" fill-rule="evenodd" class="st2" fill="#FFF"/>
<path d="M9.569,7.048,19.997,5.814c0.662-0.078,1.265,0.422,1.34,1.111s-0.404,1.317-1.066,1.396l-10.428,1.235c-0.662,0.078-1.265-0.422-1.34-1.111-0.075-0.691,0.404-1.319,1.066-1.397z" fill-rule="evenodd" class="st2" fill="#FFF"/>
<path d="M9.777,10.033,20.205,8.799c0.662-0.078,1.265,0.422,1.34,1.111s-0.404,1.317-1.066,1.396l-10.428,1.234c-0.662,0.078-1.265-0.422-1.34-1.111-0.075-0.69,0.404-1.318,1.066-1.396z" fill-rule="evenodd" class="st2" fill="#FFF"/>
<path d="m9.626,4.074,4.498-0.426c0.664-0.063,1.265,0.422,1.34,1.111s-0.403,1.334-1.066,1.396l-4.499,0.427c-0.662,0.063-1.264-0.422-1.339-1.111-0.076-0.691,0.402-1.334,1.066-1.397z" fill-rule="evenodd" class="st2" fill="#FFF"/>
<polygon fill-rule="evenodd" points="13.617,25.436,13.617,13.845,13.617,13.845,16.223,13.845,16.223,25.436" class="st2" fill="#FFF"/>
<path d="m12.584,17.079h4.901c0.294,0,0.536,0.247,0.536,0.549v0.431c0,0.302-0.242,0.548-0.536,0.548h-4.901c-0.295,0-0.536-0.246-0.536-0.548v-0.431c0-0.302,0.241-0.549,0.536-0.549z" fill-rule="evenodd" class="st2" fill="#FFF"/>
<polygon fill-rule="evenodd" points="14.865,25.286,11.935,24.267,11.935,21.392,11.935,21.392,17.995,21.392,17.995,24.267" class="st2" fill="#FFF"/>
<path fill="#086d39" class="st3" d="m19.44,18.98c-0.666,0.591-1.725,1.098-3.095,1.351-1.144,0.212-2.513,0.251-4.059,0.02l0.145-0.988c1.435,0.215,2.693,0.181,3.734-0.012,1.182-0.219,2.073-0.636,2.614-1.116l0.661,0.745z"/>
<path d="m9.215,17.369c-1.539-2.745,2.876-2.753,0.69-6.309,1.968,0.735,2.745,1.811,2.15,3.99-0.596,2.179-2.263,1.122-2.84,2.319z" fill-rule="evenodd" class="st0" fill="#086d39"/>
</g>
</svg>
