<svg xmlns="http://www.w3.org/2000/svg" height="18" width="22.350855" version="1.1" xmlns:dc="http://purl.org/dc/elements/1.1/">
<style type="text/css">
.st0{fill-rule:evenodd;clip-rule:evenodd;fill:#FFF;}
</style>
<g transform="matrix(1.2921064,0,0,1.2921064,-9.3845688,-1.0741967)">
<path d="m7.263,13.005c1.636,0.046,3.881,0,5.096-1.34-1.48-0.107-2.307-0.493-3.179-2.402h1.356c-2.073-0.725-2.603-2.188-2.712-3.558,0.468,0.076,0.935,0.153,1.403,0.23-1.041-1.055-1.885-1.953-0.842-4.62,1.714,1.817,3.055,3.219,7.247,3.788-0.343-5.144,4.878-4.836,6.265-3.234,0.732-0.08,1.502-0.474,2.188-0.767-0.125,0.91-0.885,1.383-1.431,1.877,0.562,0.123,1.197-0.188,1.907-0.555-0.442,0.832-1.165,1.524-1.776,1.802,0.088,11.253-11.876,12.221-15.522,8.779z" fill-rule="evenodd" class="st0" fill="#FFF"/>
</g>
</svg>
