<svg xmlns="http://www.w3.org/2000/svg" height="49" width="49" version="1.1" xmlns:dc="http://purl.org/dc/elements/1.1/" viewBox="0 0 18.375001 18.375001">
<circle d="m 37.573999,19.799999 c 0,9.816309 -7.957691,17.774 -17.774,17.774 -9.816309,0 -17.7739999,-7.957691 -17.7739999,-17.774 0,-9.816309 7.9576909,-17.7739999 17.7739999,-17.7739999 9.816309,0 17.774,7.9576909 17.774,17.7739999 z" fill-rule="evenodd" cx="19.799999" cy="19.799999" transform="matrix(0.51041668,0,0,0.51041668,-0.91875,-0.91875)" r="17.774" fill="#FFF"/>
<path d="m2.5791353,6.0816143-0.267969,0.670178-0.13577-0.05564,0.207229-0.517052-0.241427-0.09851-0.190896,0.477239-0.129136-0.05308,0.190896-0.47724-0.279198-0.114333-0.213354,0.534406-0.138833-0.05666,0.274604-0.687021,0.923854,0.377708zm-0.325646,0.849334-0.0393,0.173541-0.831979,0.287365,0.727344,0.169458-0.03624,0.15874-0.9718331-0.227135,0.039302-0.172521,0.8324901-0.289917-0.727344-0.169458,0.03573-0.157209,0.971833,0.227136zm-0.18426,0.951927-0.01888,0.180177-0.817688,0.168437,0.765625,0.336365-0.01838,0.178136-0.9560104-0.45223,0.017354-0.167416,1.0279794-0.243469zm-0.06533,1.064219-0.0056,0.168437-0.9968438-0.03522,0.00561-0.168437,0.9968438,0.03522zm-0.08626,0.62526-0.305739,0.02144,0.01633,0.239895c0.0051,0.06942,0.02042,0.119438,0.04696,0.147511,0.02603,0.02909,0.06686,0.04134,0.120969,0.03726,0.05308-0.0036,0.09085-0.02093,0.112292-0.05257,0.02195-0.03165,0.03063-0.08218,0.02552-0.150573l-0.01633-0.242958zm0.128115-0.174562,0.03063,0.433343c0.00051,0.01327,0.0015,0.02858,0.0015,0.0439,0,0.0051-0.00051,0.0082,0,0.0092,0.0061,0.08932-0.01378,0.1602707-0.05921,0.2138637-0.04543,0.0541-0.111271,0.08371-0.197532,0.08983-0.05614,0.0041-0.105656-0.0051-0.147-0.02705-0.04236-0.02246-0.07299-0.05564-0.09392-0.100042-0.01072,0.04134-0.02909,0.07299-0.05564,0.09239-0.02705,0.01991-0.07197,0.03369-0.13526,0.04185l-0.142406,0.01837h-0.001c-0.061761,0.0071-0.098511,0.02348-0.1107606,0.05002l-0.029094,0.002-0.01276-0.187323c0.01276-0.0082,0.027563-0.0148,0.045427-0.01991,0.017354-0.0051,0.045427-0.01021,0.084219-0.0148l0.118417-0.01276c0.0638-0.0087,0.105146-0.02552,0.125052-0.05002,0.01991-0.02501,0.02756-0.06584,0.02348-0.121479l-0.002-0.03216-0.01531-0.22101-0.4093536,0.02909-0.01225-0.166906,0.9948016-0.07044zm0.07503,1.4184477c-0.02195-0.09596-0.07146-0.162823-0.149042-0.201615-0.07809-0.03828-0.175073-0.0439-0.292468-0.01684-0.116886,0.02756-0.201615,0.07503-0.254698,0.144448-0.05308,0.06891-0.0684,0.151594-0.04645,0.247042,0.02144,0.09545,0.07146,0.161802,0.149041,0.200594,0.07758,0.03879,0.175073,0.04441,0.291959,0.01684,0.116885-0.02705,0.201614-0.07503,0.255208-0.144448,0.05257-0.06839,0.0684-0.150573,0.04645-0.24602zm0.139854-0.03267c0.03318,0.145469,0.01378,0.271031-0.05768,0.376687-0.07248,0.105146-0.187833,0.176605-0.346573,0.213355-0.158739,0.03675-0.293489,0.0245-0.403739-0.03828-0.110761-0.06329-0.18273-0.167416-0.215907-0.312885-0.03318-0.14649-0.01378-0.272052,0.05768-0.377708,0.07197-0.104636,0.187323-0.176094,0.346573-0.213355,0.15925-0.03675,0.294-0.0245,0.40425,0.03828,0.11025,0.06329,0.182219,0.167416,0.215396,0.313906zm0.199063,0.625771,0.06635,0.165375-0.518073,0.717135,0.692125-0.28175,0.06023,0.150573-0.924875,0.377198-0.06533-0.163844,0.517052-0.720198-0.692125,0.282771-0.05921-0.149041,0.923855-0.378219zm0.382302,0.944271,0.124031,0.20876-0.560437,0.623219,0.80901-0.204167,0.124031,0.208761-0.854948,0.519093-0.08116-0.136281,0.706417-0.429771-0.833511,0.214886-0.08371-0.140365,0.580854-0.640573-0.706417,0.429261-0.07911-0.133219,0.854948-0.519604zm0.676302,1.055541,0.430281,0.577792-0.116885,0.08881-0.331771-0.445593-0.20825,0.158739,0.30625,0.410886-0.111271,0.08524-0.30676-0.411906-0.240407,0.18375,0.343,0.459885-0.119437,0.09136-0.441511-0.591573,0.796761-0.607396zm0.55176,0.684979,0.130667,0.119438-0.154146,0.874344,0.499698-0.560948,0.119438,0.108719-0.667625,0.749291-0.129646-0.117906,0.152104-0.876385-0.499698,0.560437-0.118417-0.107698,0.667625-0.749292zm0.730917,0.669157,0.630365,0.462437-0.08575,0.119438-0.247553-0.181709-0.500208,0.696209-0.133219-0.09851,0.499698-0.695698-0.249083-0.182729,0.08575-0.119437zm0.998375,0.886594-0.350146,0.297572,0.254188,0.154657,0.09596-0.452229zm0.0071-0.193959,0.15976,0.09749-0.199573,1.054521-0.152104-0.09239,0.05615-0.2695-0.332281-0.202125-0.20774,0.178646-0.149042-0.09034,0.824834-0.676302zm0.594125,0.299615,0.154146,0.06329-0.316969,0.793188,0.456823,0.185792-0.05666,0.141895-0.610459-0.249083,0.373115-0.935083zm1.537375,0.639552-0.0439,0.315437,0.213354,0.03063c0.06686,0.0097,0.115865,0.0041,0.147511-0.01633,0.03216-0.02042,0.05206-0.05819,0.05921-0.114333,0.0077-0.0541-0.001-0.09647-0.02552-0.126073-0.0245-0.0296-0.06686-0.049-0.127604-0.05717l-0.223008-0.03216zm-0.144448-0.166906,0.376177,0.05308c0.06074,0.0087,0.105656,0.01735,0.133729,0.02756,0.02858,0.01021,0.05359,0.02297,0.07452,0.0393,0.04185,0.03113,0.07095,0.07095,0.08779,0.119437,0.01684,0.04951,0.02144,0.106167,0.01225,0.169969-0.0077,0.05308-0.02348,0.09902-0.04849,0.138323-0.02552,0.0393-0.05819,0.06993-0.098,0.09239-0.02807,0.0148-0.05921,0.0245-0.09392,0.02756-0.03471,0.0036-0.08167,0.001-0.140364-0.0077l-0.224073-0.03216-0.05461,0.393531-0.163843-0.02348,0.138833-0.997864zm1.094844,0.256739v0.309823h0.237854c0.06942,0,0.119437-0.01174,0.149552-0.03675,0.03012-0.0245,0.04492-0.06431,0.04492-0.119437,0-0.05359-0.01429-0.0929-0.0439-0.116886-0.0296-0.02399-0.0786-0.03624-0.147-0.03624h-0.241427v-0.000511zm-0.162823-0.141896h0.429771c0.01327,0,0.02756,0.000511,0.04339,0.0015,0.0051,0,0.0082,0.00051,0.0092,0.00051,0.08779,0,0.157208,0.02501,0.206208,0.07452,0.05053,0.04951,0.07452,0.117906,0.07452,0.205187,0,0.05666-0.01174,0.105657-0.03675,0.14598-0.02501,0.04083-0.06023,0.06993-0.105656,0.08779,0.04083,0.01327,0.06993,0.0342,0.08779,0.06278,0.01735,0.02858,0.02858,0.07452,0.03165,0.139344l0.0092,0.143938v0.0015c0.0026,0.06278,0.01633,0.101062,0.04134,0.115354v0.0296h-0.185791c-0.0077-0.01327-0.01276-0.0296-0.01684-0.04747-0.0041-0.01736-0.0066-0.04645-0.0087-0.08575l-0.0056-0.119948c-0.0036-0.06482-0.01684-0.108209-0.03981-0.129136-0.02348-0.02195-0.06278-0.03216-0.118417-0.03216h-0.251125v0.414969h-0.164354v-1.008584zm1.4465207,0.05257c-0.09596,0.01378-0.166396,0.05768-0.2113127,0.132709-0.04492,0.07503-0.0587,0.17201-0.04236,0.292468,0.01684,0.119438,0.05666,0.209271,0.1204577,0.26899,0.06329,0.05921,0.142406,0.08218,0.239385,0.0684,0.09545-0.01327,0.165375-0.05717,0.210292-0.132709,0.04441-0.07452,0.0587-0.17201,0.04237-0.291447-0.01684-0.120459-0.05666-0.210292-0.119948-0.2695-0.06278-0.06023-0.142407-0.08269-0.238875-0.06891zm-0.02042-0.143937c0.147-0.02093,0.268479,0.0097,0.36699,0.09085,0.09698,0.08218,0.157208,0.204167,0.180177,0.36801,0.02246,0.162823-0.002,0.297573-0.0735,0.40323-0.07146,0.105656-0.180688,0.168947-0.327177,0.189875-0.147,0.02042-0.2695-0.0097-0.3674997-0.09136-0.09698-0.08167-0.157719-0.203656-0.180177-0.3675-0.02297-0.163333,0.0015-0.298083,0.07299-0.40374,0.07248-0.105145,0.1811977-0.168948,0.3281977-0.189364zm0.568094-0.05053,0.745208-0.230198,0.04287,0.141385-0.292469,0.09034,0.248573,0.822791-0.158229,0.049-0.248573-0.822791-0.29451,0.09136-0.04287-0.141895zm0.941208-0.301146,0.663542-0.270521,0.0541,0.137302-0.511437,0.20876,0.09698,0.24398,0.472135-0.192428,0.05257,0.130667-0.472135,0.192938,0.113312,0.28277,0.528281-0.215906,0.05615,0.139854-0.679875,0.277667-0.373625-0.935083zm1.720615-0.504802-0.140365,0.08524c-0.03879-0.04747-0.08524-0.0735-0.140364-0.07911-0.05461-0.0061-0.112802,0.0097-0.174052,0.04696-0.08167,0.04951-0.128115,0.115865-0.139344,0.199062-0.01072,0.08269,0.01327,0.175584,0.07452,0.277667,0.06125,0.102594,0.131687,0.169969,0.212333,0.202125,0.08014,0.03165,0.15976,0.02348,0.238875-0.0245,0.06278-0.03777,0.103104-0.0883,0.121479-0.150573,0.01889-0.06227,0.01225-0.125052-0.0194-0.189364l0.138834-0.08473c0.05461,0.09953,0.06635,0.202125,0.0342,0.30625-0.03216,0.103615-0.09953,0.187834-0.204167,0.251636-0.12199,0.07401-0.242448,0.09187-0.360354,0.05308-0.118417-0.03828-0.21999-0.128114-0.304209-0.2695-0.08473-0.142916-0.115864-0.276646-0.09239-0.400166,0.02348-0.123011,0.09902-0.223563,0.225604-0.300636,0.103104-0.06227,0.201104-0.08677,0.295021-0.07299,0.09341,0.01327,0.1715,0.06329,0.233771,0.149552zm-0.02195-0.328709,0.622708-0.474177,0.08779,0.117906-0.24449,0.186303,0.511948,0.68702-0.131687,0.100552-0.512459-0.687531-0.24551,0.187323-0.0883-0.117396zm0.775833-0.640573,0.123521-0.112802,0.667625,0.748782-0.123521,0.113312-0.667625-0.749292zm0.667625-0.531854c-0.06227,0.07503-0.08524,0.155677-0.06891,0.241427,0.01582,0.08575,0.06993,0.167927,0.161802,0.245511,0.09187,0.07758,0.180688,0.117395,0.267458,0.118927,0.08677,0.001,0.160782-0.03522,0.223563-0.111271,0.06176-0.07452,0.08473-0.154656,0.06891-0.240917-0.01684-0.08626-0.07044-0.167927-0.162312-0.24551-0.09187-0.07758-0.180688-0.116886-0.266948-0.118417-0.08677-0.0015-0.161292,0.03522-0.223563,0.11025zm-0.11025-0.09341c0.09545-0.114844,0.205698-0.174563,0.332282-0.180177,0.126583-0.0051,0.252145,0.04492,0.376687,0.151083,0.125052,0.106167,0.196,0.222542,0.212844,0.349125,0.01684,0.127094-0.02195,0.248063-0.116886,0.362396-0.09596,0.115354-0.206718,0.175583-0.333302,0.180687-0.126073,0.0056-0.251635-0.04543-0.376687-0.151083-0.125563-0.106167-0.196511-0.223052-0.212844-0.349635-0.01735-0.126073,0.02195-0.247552,0.117906-0.362396zm0.459886-0.480302,0.09085-0.152615,0.878937-0.01378-0.639552-0.388427,0.08269-0.138833,0.854948,0.519093-0.09034,0.151594-0.880469,0.01582,0.639552,0.388937-0.08167,0.138323-0.854948-0.520114zm1.002968-2.003386,0.360865,0.284813,0.09647-0.283792-0.457334-0.001zm-0.188854,0.03369,0.06074-0.179156,1.062177-0.02195-0.05768,0.169458-0.272563,0.001-0.126583,0.370562,0.215396,0.168438-0.05615,0.165885-0.825344-0.67426zm0.662011-1.4449897-0.02858,0.1638437c-0.06023,0.002-0.11127,0.02246-0.151593,0.06074-0.03981,0.03828-0.06636,0.09085-0.07758,0.157718-0.01735,0.09902,0.0015,0.182219,0.05768,0.248573,0.05513,0.06584,0.141896,0.10974,0.260823,0.130667,0.115865,0.02093,0.211823,0.01021,0.287875-0.03369,0.07605-0.04339,0.123011-0.112802,0.139854-0.20825,0.01378-0.08167,0.000511-0.152104-0.04032-0.210802-0.04134-0.05972-0.103105-0.098-0.186303-0.116885l-0.04696,0.271542-0.13526-0.0245,0.07401-0.4231357,0.530323,0.09443-0.0194,0.109229-0.128625,0.0056c0.04287,0.04594,0.07248,0.09647,0.0883,0.153635,0.01684,0.05768,0.01889,0.118927,0.0077,0.185282-0.0245,0.137302-0.09085,0.239385-0.200594,0.307781-0.11025,0.0684-0.242448,0.08881-0.396084,0.06125-0.157718-0.02858-0.275625-0.09392-0.354229-0.196-0.07809-0.102594-0.105656-0.225094-0.08065-0.369031,0.02093-0.119438,0.06686-0.211823,0.137303-0.2761357,0.06993-0.06533,0.157208-0.09596,0.262354-0.09187zm-0.277667-0.292979,0.02501-0.72275,0.14598,0.0051-0.01889,0.557886,0.260313,0.0097,0.01735-0.5145,0.139344,0.0051-0.01735,0.513989,0.301146,0.01072,0.01991-0.57626,0.149552,0.0056-0.02603,0.740615-0.996333-0.03522zm-0.0097-0.910583-0.01837-0.177115,0.693146-0.545635-0.742146,0.07911-0.01633-0.161802,0.991739-0.105146,0.01787,0.176094-0.693146,0.548188,0.742146-0.0786,0.01684,0.159761-0.99174,0.105146zm-0.0092-1.981948,0.03675,0.161291c-0.05666,0.02297-0.09596,0.05921-0.118417,0.11025-0.02246,0.05104-0.02603,0.111782-0.0097,0.181198,0.02144,0.09392,0.06942,0.15925,0.143938,0.196511,0.07452,0.03624,0.168947,0.04083,0.283791,0.01378,0.116375-0.02654,0.201615-0.07401,0.255719-0.141385,0.0541-0.06738,0.07197-0.14598,0.05104-0.237344-0.01633-0.07197-0.05104-0.126073-0.103615-0.163334-0.05308-0.03675-0.114333-0.05053-0.18426-0.0393l-0.03624-0.15976c0.11025-0.02195,0.209781-0.0015,0.298083,0.06125,0.0883,0.06227,0.14598,0.154146,0.174052,0.274604,0.03216,0.139344,0.01123,0.260823-0.06125,0.362396-0.07299,0.102594-0.188343,0.17201-0.347593,0.20876-0.160782,0.03777-0.296042,0.02603-0.404761-0.03471-0.109229-0.06023-0.180177-0.163844-0.213354-0.309312-0.02705-0.118417-0.0194-0.2205,0.02246-0.30625,0.04134-0.08677,0.112803-0.14598,0.213355-0.178646zm-0.313907,0.04849-0.07707-0.193448,0.32973-0.399656-0.508886-0.049-0.07197-0.180177,0.688042,0.0929,0.365458-0.149552,0.06227,0.156698-0.358312,0.145979-0.429261,0.57626z" fill-rule="evenodd" fill="#0050b8"/>
<ellipse d="m 7.4980002,11.282 c 0,0.300995 -0.2417662,0.545 -0.54,0.545 -0.2982338,0 -0.54,-0.244005 -0.54,-0.545 0,-0.300996 0.2417662,-0.545 0.54,-0.545 0.2982338,0 0.54,0.244004 0.54,0.545 z" fill-rule="evenodd" cx="6.9580002" rx="0.54000002" cy="11.282" transform="matrix(0.51041668,0,0,0.51041668,-0.91875,-0.91875)" ry="0.54500002" fill="#0050b8"/>
<ellipse d="m 32.914999,11.279 c 0,0.300995 -0.241318,0.545 -0.539,0.545 -0.297681,0 -0.539,-0.244005 -0.539,-0.545 0,-0.300995 0.241319,-0.545 0.539,-0.545 0.297682,0 0.539,0.244005 0.539,0.545 z" fill-rule="evenodd" cx="32.375999" rx="0.53899997" cy="11.279" transform="matrix(0.51041668,0,0,0.51041668,-0.91875,-0.91875)" ry="0.54500002" fill="#0050b8"/>
<path d="m6.2056463,7.3750103c-0.07095,1.293907,1.435802,3.0252397,2.989,3.0252397,1.5531977,0,3.1349787-1.9314167,2.9889997-3.0252397h-5.9779997z" fill-rule="evenodd" fill="#0C3"/>
<path d="m6.2092193,7.6975943c0.165375,1.516448,1.442948,2.7026557,2.985937,2.7026557,1.5577917,0,2.8440417-1.2081557,2.9905317-2.7445107h-0.01225c-0.04492,0.385875-0.371584,0.687021-0.764605,0.687021-0.349125,0-0.644656-0.236833-0.738573-0.558906-0.09443,0.322073-0.389958,0.558906-0.7385727,0.558906-0.348614,0-0.644656-0.236833-0.738572-0.558906-0.09443,0.322073-0.389959,0.558906-0.739084,0.558906-0.354229,0-0.654354-0.244489-0.743167-0.574729-0.08881,0.33024-0.388427,0.574729-0.743166,0.574729-0.37924,0-0.695698-0.279708-0.758479-0.645166z" fill-rule="evenodd" fill="#0050b8"/>
<path d="m9.4917083,7.3806253h2.6873437c0-1.672125-1.344437-3.036469-2.9920617-3.036469-1.648136,0-2.992063,1.364344-2.992063,3.036469h2.847104c-0.336364-0.09851-0.583406-0.413948-0.583406-0.784511,0-0.450187,0.362906-0.817687,0.8085-0.817687,0.445083,0,0.8084997,0.3675,0.8084997,0.817687,0,0.370563-0.2470417,0.68549-0.5839167,0.784511z" fill-rule="evenodd" fill="#39F"/>
<rect fill-rule="evenodd" height="0.20365626" width="0.26082292" y="13.00746" x="8.882782" fill="#0C3"/>
<path d="m3.3447603,3.5218753,0.118927-0.116886,0.42875,0.448657c0.05972,0.06227,0.116886,0.09596,0.1715,0.09953,0.05513,0.0041,0.11025-0.02144,0.165886-0.07554,0.05615-0.0541,0.0832-0.109739,0.08116-0.165375-0.002-0.05615-0.03267-0.115354-0.09187-0.177114l-0.42875-0.449167,0.119437-0.115865,0.435386,0.455802c0.08728,0.09136,0.130156,0.185792,0.128625,0.283792-0.0015,0.09749-0.04798,0.190386-0.138323,0.278688-0.0929,0.09034-0.185792,0.13475-0.279708,0.133218-0.09392-0.0015-0.185792-0.05002-0.275625-0.143937l-0.435395-0.455803zm0.943761-0.84474,0.143937-0.101573,0.804417,0.347084-0.425688-0.615563,0.130667-0.0929,0.569625,0.821771-0.142406,0.100552-0.807479-0.344531,0.426197,0.615052-0.129645,0.09187-0.569625-0.821771zm1.059625-0.689573,0.148021-0.07605,0.450697,0.89425-0.14802,0.07605-0.450698-0.89425zm0.45376-0.234281,0.724281-0.280729,0.05206,0.137302-0.284813,0.11076,0.303698,0.798802-0.153635,0.05972-0.303188-0.799312-0.286343,0.11127-0.05206-0.137812zm1.019302-0.386896,0.683959-0.1985519,0.04032,0.1413849-0.528281,0.153125,0.07146,0.251636,0.487447-0.140875,0.03828,0.13526-0.486938,0.140875,0.08269,0.291448,0.545125-0.158229,0.04134,0.144448-0.701822,0.203656-0.273584-0.964177zm1.311771-0.145469,0.08575,0.707948,0.201615-0.02501c0.09749-0.01174,0.165885-0.05053,0.205187-0.115354,0.03879-0.06482,0.05104-0.159761,0.03573-0.283282-0.01378-0.112802-0.04747-0.196-0.101062-0.248062-0.05308-0.05308-0.125052-0.07401-0.214375-0.06278l-0.212844,0.02654zm-0.178135-0.1209684,0.38026-0.047469c0.144448-0.017865,0.258271,0.010208,0.340448,0.083708,0.08218,0.0735,0.133729,0.1929374,0.153635,0.3572914,0.0194,0.160781-0.0051,0.289406-0.07401,0.385875-0.06891,0.09647-0.178135,0.154146-0.327177,0.172521l-0.353208,0.0439-0.119948-0.995823zm2.2606347,0.2751144-0.156698-0.01276c0.0015-0.05717-0.01582-0.103104-0.05206-0.138834-0.03573-0.03522-0.08626-0.055635-0.1510837-0.06176-0.05359-0.00459-0.09851,0.00408-0.13526,0.026542-0.03675,0.02246-0.05564,0.05257-0.05921,0.08983-0.0031,0.03777,0.0092,0.07095,0.03675,0.09698,0.02807,0.02705,0.08881,0.05717,0.182218,0.09034,0.1418957,0.05053,0.2337707,0.09902,0.2746047,0.14649,0.04032,0.04747,0.05717,0.109739,0.05104,0.187322-0.0082,0.09443-0.04951,0.166907-0.124031,0.217948-0.07452,0.05104-0.1699687,0.07146-0.2863437,0.06125-0.1225-0.01072-0.215906-0.04951-0.278687-0.115354-0.06329-0.06584-0.09239-0.155166-0.08779-0.267458l0.15976,0.01429c-0.001,0.06482,0.01837,0.116885,0.05921,0.157208,0.04032,0.0393,0.098,0.06278,0.172521,0.06942,0.05666,0.0051,0.104125-0.0046,0.142406-0.02961,0.03828-0.0245,0.05921-0.05615,0.06278-0.09647,0.0015-0.01582-0.002-0.0342-0.01072-0.05512-0.0087-0.02093-0.01939-0.0393-0.03369-0.05513-0.02399-0.02654-0.07963-0.0541-0.167417-0.08473-0.01888-0.0066-0.03267-0.01123-0.04287-0.01429-0.107698-0.0393-0.182729-0.08371-0.224073-0.133219-0.04185-0.04951-0.05921-0.113823-0.05257-0.191917,0.0071-0.08269,0.04645-0.14751,0.117396-0.1939579,0.07197-0.046448,0.162823-0.064823,0.273584-0.054615,0.108208,0.0097,0.1914057,0.045938,0.2506137,0.1087187,0.05921,0.062781,0.08728,0.1418962,0.07963,0.2388752zm0.382302-0.2414269,0.755417,0.1766039-0.03267,0.143427-0.296552-0.06942-0.190896,0.834021-0.160271-0.03726,0.190386-0.834021-0.298594-0.06993,0.03318-0.1434269zm1.323,0.5553329-0.291958,0.352698,0.275625,0.106678,0.01633-0.459376zm-0.02603-0.191406,0.173542,0.06789-0.01531,1.068812-0.164864-0.0638,0.0092-0.274604-0.360354-0.139854-0.173031,0.210802-0.161292-0.06227,0.692125-0.806969zm0.674771,0.280729,0.691104,0.355761-0.06635,0.131177-0.271542-0.139344-0.384344,0.762563-0.146489-0.07503,0.384344-0.763072-0.273073-0.140365,0.06635-0.131688zm1.000417,0.559928,0.583406,0.412927-0.08371,0.120458-0.450187-0.3185-0.148531,0.214885,0.414968,0.29349-0.07962,0.115354-0.414968-0.294-0.172011,0.248573,0.464479,0.329219-0.08575,0.1225-0.597697-0.423136,0.569625-0.82177zm1.243885,1.407729-0.113312-0.10974c0.03624-0.04339,0.05206-0.09034,0.04594-0.140875-0.0056-0.05053-0.03216-0.098-0.0786-0.143937-0.03879-0.03777-0.07911-0.05972-0.121479-0.06533-0.04186-0.0056-0.07605,0.0046-0.101573,0.03165-0.02654,0.02756-0.03675,0.06074-0.03216,0.09902,0.0051,0.03879,0.03318,0.100552,0.08524,0.185792,0.07963,0.129645,0.119948,0.225604,0.1225,0.288385,0.002,0.06227-0.02348,0.12199-0.07707,0.178135-0.06482,0.0684-0.141896,0.098-0.231729,0.09085-0.08983-0.0082-0.177115-0.05308-0.260823-0.13475-0.08881-0.08677-0.137302-0.175584-0.144958-0.266438-0.0077-0.09085,0.02501-0.179156,0.09851-0.263885l0.115354,0.112802c-0.04134,0.05002-0.0587,0.103104-0.05206,0.15976,0.0071,0.05666,0.03726,0.111781,0.09136,0.163844,0.04083,0.03981,0.08371,0.06227,0.128625,0.06789,0.04543,0.0056,0.08167-0.0061,0.10974-0.03522,0.01072-0.01123,0.0194-0.02807,0.02603-0.05002,0.0071-0.02144,0.0097-0.04288,0.0082-0.06431-0.002-0.03522-0.02807-0.09341-0.07707-0.17201-0.01072-0.01735-0.01838-0.03012-0.02399-0.03879-0.05921-0.09902-0.09034-0.180687-0.09188-0.246021-0.002-0.06533,0.02399-0.126073,0.07861-0.182729,0.05717-0.05972,0.128114-0.08524,0.212333-0.07554,0.08473,0.0097,0.166906,0.05308,0.247042,0.131687,0.07758,0.07554,0.119948,0.157719,0.127093,0.243979,0.0066,0.08626-0.02297,0.164865-0.08983,0.235813z" fill-rule="evenodd" fill="#0050b8"/>
<path d="m14.439688,8.6464583c0.02297,0.0015-0.0342-0.002-0.001,0.01072-0.03879,1.087698-0.701823,2.2075517-1.390886,2.9241767-0.165375,0.201104-0.340958,0.37924-0.478771,0.529302-0.0026,0.03165-0.02144-0.02297,0.01123,0.000511,0.67426,0.06584,1.517979,0.02603,2.171823,0.354229-0.241428,0.438958-0.878938,0.640573-1.333209,0.854437-1.261239,0.520115-2.639364,0.471625-3.9261247,0.143427,0,0-0.1225-0.05053-0.132708-0.07248l-0.0036,0.486427c-0.126583,0.0026-0.242448,0.0056-0.333813-0.00051-0.06789-0.01531-0.0041-0.392-0.04492-0.457844l-0.09596,0.04645c-1.724187,0.405271-3.878146,0.115865-5.142448-0.951417-0.07452-0.07911-0.128114-0.125052-0.14751-0.179156,0.0015-0.02144,0,0,0.01225-0.01021,0.663542-0.242448,1.522062-0.323094,2.202958-0.341979,0.01123,0.001,0.01991,0.0439,0.02144,0.02246-0.971323-0.984594-1.5435-2.0585097-1.821167-3.3784477l0.01378-0.03113c1.342907,0.204677,2.521969,0.737041,3.373855,1.6292497,0.703864,0.72326,1.252562,1.806875,1.546052,2.767989,0.187323,0.255719,0.02297,0.149552,0.01633,0.08575,0.0066-0.38026-0.01174-1.916104-0.01582-2.307594,0.126073,0.0087,0.323604-0.01072,0.402719,0.0056l0.01021,2.233073c0.03267,0.02348-0.03726,0.03981-0.0015,0.02144,0.161292-0.296553,0.389958-1.011136,0.607906-1.304115,0.4981667-1.067792,1.4771457-1.9554057,2.5913857-2.5173747,0.516541-0.261333,1.245416-0.456823,1.887521-0.56299zm-0.5635,0.592084c-0.365969,1.1504787-1.035125,1.9104887-2.049323,2.6582497-0.471625,0.286854-0.939167,0.520625-1.503688,0.67375-0.02297-0.0015-0.02195-0.01225-0.0439-0.0245,0.05768-0.451209,0.356781-0.886084,0.571156-1.274,0.359334-0.474177,0.798803-0.94223,1.32198-1.2995207,0.497146-0.316459,1.035125-0.577281,1.704791-0.744698,0.01889,0.0541-0.05563-0.0245-0.001,0.01072zm-9.2834587-0.137302c1.26124,0.36852,2.310656,1.2311247,2.97675,2.2907497,0.17099,0.317989,0.334323,0.730916,0.467031,1.098927-0.00051,0.01072-0.01991-0.04339-0.03369-0.01225-0.606886-0.03981-1.147927-0.488469-1.610365-0.762052-0.885062-0.756438-1.534312-1.5925-1.811469-2.6163957,0.002-0.02093-0.02297-0.0015,0.01174,0.001z" fill-rule="evenodd" fill="#0C3"/>
<path fill="#0050b8" d="M9.1875003,0c2.5362597,0,4.8331347,1.029,6.4960727,2.6909163,1.662427,1.662938,2.691427,3.959813,2.691427,6.496584,0,2.5367707-1.029,4.8336457-2.691427,6.4965827-1.662938,1.661917-3.959813,2.690917-6.4960727,2.690917-2.53575,0-4.832625-1.029-6.496073-2.690917-1.6629377-1.662937-2.6914273-3.959812-2.6914273-6.4965827,0-2.536771,1.029-4.833646,2.6914273-6.496584,1.663448-1.6624267,3.960323-2.6909163,6.496073-2.6909163zm6.3358017,2.8542503c-1.621594-1.621084-3.861812-2.6240524-6.3358017-2.6240524-2.47399,0-4.714719,1.0029684-6.335802,2.6240524-1.621084,1.620573-2.6240525,3.859771-2.6240525,6.33325,0,2.4734787,1.0029685,4.7126767,2.6240525,6.3337607,1.621593,1.621083,3.861302,2.624052,6.335802,2.624052,2.4744997,0,4.7142077-1.002969,6.3358017-2.624052,1.621084-1.621084,2.624563-3.860282,2.624563-6.3337607,0-2.473479-1.003479-4.712677-2.624563-6.33325z"/>
</svg>
