<svg xmlns="http://www.w3.org/2000/svg" version="1.1" x="0" y="0" width="36" height="36" viewBox="0 0 36 36" enable-background="new 0 0 36 36" xml:space="preserve">
<path fill-rule="evenodd" clip-rule="evenodd" fill="#F7A757" d="M22.88 25.98c-6.21-2.66-10.12-7.22-12.57-12.38 1.13-1.17 2.53-2.36 3.66-4.03C12.78 6.46 9.99 3.27 7.3 0.55 4.88 2.02 1.2 5.62 0.92 6.46c-0.73 2.05-0.61 3.93-0.09 5.72 2.72 9.66 16.36 21.89 24.02 23.18 1.56 0.47 3.98 0.55 5.07 0 2.21-1.34 4.38-3.94 6.01-6.47 -2.73-3.02-5.68-5.24-8.91-6.75C25.51 23.29 24.13 24.57 22.88 25.98L22.88 25.98z"/>
</svg>
