<svg xmlns="http://www.w3.org/2000/svg" version="1.1" id="Icon" x="0" y="0" viewBox="456 256 48 48" enable-background="new 456 256 48 48" xml:space="preserve">
<linearGradient id="SVGID_1_" gradientUnits="userSpaceOnUse" x1="351.37" y1="312.88" x2="351.37" y2="301.38" gradientTransform="matrix(4.1667 0 0 -4.1667 -983.9935 1559.6541)">
<stop offset="0" stop-color="#F6F8F3"/>
<stop offset="0.14" stop-color="#F2F4EF"/>
<stop offset="0.29" stop-color="#E8E7E1"/>
<stop offset="0.45" stop-color="#D7D2CC"/>
<stop offset="0.62" stop-color="#BEB4AD"/>
<stop offset="0.78" stop-color="#9F8E86"/>
<stop offset="0.95" stop-color="#796156"/>
<stop offset="1" stop-color="#6C5146"/>
</linearGradient>
<path fill="url(#SVGID_1_)" d="M504 297.93c0 3.31-2.68 5.99-5.99 5.99h-35.94c-3.31 0-5.99-2.68-5.99-5.99V261.99c0-3.31 2.68-5.99 5.99-5.99h35.94c3.31 0 5.99 2.68 5.99 5.99V297.93z"/>
<linearGradient id="SVGID_2_" gradientUnits="userSpaceOnUse" x1="351.35" y1="312.88" x2="351.35" y2="309.29" gradientTransform="matrix(4.1667 0 0 -4.1667 -983.9935 1559.6541)">
<stop offset="0" stop-color="#A36F59"/>
<stop offset="1" stop-color="#63362C"/>
</linearGradient>
<path fill="url(#SVGID_2_)" d="M503.92 270.93v-8.94c0-3.31-2.68-5.99-5.99-5.99H461.99c-3.31 0-5.99 2.68-5.99 5.99v8.94H503.92z"/>
<g id="FiFizv_1_">
<image overflow="visible" width="144" height="144" id="FiFizv" transform="matrix(1 0 0 1 759 934)"/>
</g>
<circle opacity="0.75" fill="#372D24" cx="480.06" cy="280.81" r="13.69"/>
<linearGradient id="SVGID_3_" gradientUnits="userSpaceOnUse" x1="480.06" y1="266.63" x2="480.06" y2="293">
<stop offset="0" stop-color="#E0E0E0"/>
<stop offset="1" stop-color="#948888"/>
</linearGradient>
<circle fill="url(#SVGID_3_)" cx="480.06" cy="279.81" r="13.19"/>
<circle fill="#0F0B0A" cx="480.06" cy="279.81" r="11.44"/>
<linearGradient id="SVGID_4_" gradientUnits="userSpaceOnUse" x1="480.06" y1="290.63" x2="480.06" y2="269">
<stop offset="0" stop-color="#476364"/>
<stop offset="1" stop-color="#111214"/>
</linearGradient>
<circle fill="url(#SVGID_4_)" cx="480.06" cy="279.81" r="10.81"/>
<linearGradient id="SVGID_5_" gradientUnits="userSpaceOnUse" x1="480.06" y1="271.63" x2="480.06" y2="288">
<stop offset="0" stop-color="#2C424D"/>
<stop offset="1" stop-color="#2A2F33"/>
</linearGradient>
<circle fill="url(#SVGID_5_)" cx="480.06" cy="279.81" r="8.19"/>
<circle fill="#16201F" cx="480.06" cy="279.81" r="5.44"/>
<circle fill="#293332" cx="480.06" cy="279.81" r="5.02"/>
<circle fill="#101615" cx="480.06" cy="279.81" r="4.54"/>
<circle opacity="0.4" fill="#49405D" cx="480.06" cy="276.75" r="3.69"/>
<circle opacity="0.4" fill="#49405D" cx="480.06" cy="277.75" r="2.63"/>
<circle opacity="0.5" fill="#49405D" cx="480.13" cy="278.31" r="1.97"/>
<circle opacity="0.06" fill="#76AFCD" cx="480.06" cy="273.5" r="4.5"/>
<circle opacity="0.07" fill="#76AFCD" cx="480.06" cy="272.5" r="3.5"/>
<circle opacity="0.06" fill="#76AFCD" cx="480.03" cy="273.03" r="3.97"/>
<circle opacity="0.06" fill="#76AFCD" cx="480.06" cy="272.09" r="3.09"/>
<circle opacity="0.06" fill="#76AFCD" cx="480.09" cy="271.53" r="2.53"/>
<circle opacity="0.06" fill="#76AFCD" cx="480.08" cy="271.02" r="1.95"/>
<circle opacity="0.06" fill="#76AFCD" cx="480.09" cy="270.53" r="1.53"/>
<ellipse transform="matrix(-0.4997 0.8662 -0.8662 -0.4997 973.0029 3.2513)" opacity="0.06" fill="#76AF9F" cx="485.56" cy="282.63" rx="6.25" ry="4.5"/>
<ellipse transform="matrix(-0.4996 0.8663 -0.8663 -0.4996 973.7116 3.1675)" opacity="0.06" fill="#76AF9F" cx="485.94" cy="282.83" rx="5.66" ry="4.07"/>
<ellipse transform="matrix(-0.4996 0.8662 -0.8662 -0.4996 974.7131 3.2125)" opacity="0.06" fill="#76AF9F" cx="486.43" cy="283.13" rx="4.86" ry="3.5"/>
<ellipse transform="matrix(-0.4997 0.8662 -0.8662 -0.4997 975.5553 3.1931)" opacity="0.06" fill="#76AF9F" cx="486.86" cy="283.34" rx="4.2" ry="3.02"/>
<ellipse transform="matrix(-0.4997 0.8662 -0.8662 -0.4997 976.4149 3.3289)" opacity="0.06" fill="#76AF9F" cx="487.25" cy="283.65" rx="3.52" ry="2.53"/>
<ellipse transform="matrix(-0.4997 0.8662 -0.8662 -0.4997 977.2089 3.3984)" opacity="0.06" fill="#76AF9F" cx="487.62" cy="283.89" rx="2.89" ry="2.08"/>
<ellipse transform="matrix(-0.4997 0.8662 -0.8662 -0.4997 978.1479 3.33)" opacity="0.06" fill="#76AF9F" cx="488.11" cy="284.15" rx="2.13" ry="1.53"/>
<ellipse transform="matrix(-1 -0.0013 0.0013 -1 959.1182 575.011)" opacity="0.07" fill="#568CC7" cx="479.75" cy="287.19" rx="6.25" ry="3"/>
<ellipse transform="matrix(-1 -0.0011 0.0011 -1 959.2017 575.603)" opacity="0.07" fill="#568CC7" cx="479.77" cy="287.53" rx="5.54" ry="2.66"/>
<ellipse transform="matrix(-1 -0.0012 0.0012 -1 959.1517 576.287)" opacity="0.07" fill="#568CC7" cx="479.75" cy="287.85" rx="4.86" ry="2.33"/>
<ellipse transform="matrix(-1 -0.0013 0.0013 -1 959.0359 577.0235)" opacity="0.07" fill="#568CC7" cx="479.71" cy="288.2" rx="4.14" ry="1.99"/>
<ellipse opacity="0.07" fill="#568CC7" cx="479.71" cy="288.5" rx="3.52" ry="1.69"/>
<path opacity="0.07" fill="#568CC7" d="M477.08 288.85c0-0.73 1.24-1.33 2.77-1.33 1.53 0 2.77 0.6 2.77 1.33 0 0.73-1.24 1.33-2.77 1.33C478.32 290.19 477.08 289.59 477.08 288.85z"/>
<ellipse opacity="0.07" fill="#568CC7" cx="479.7" cy="289.17" rx="2.13" ry="1.02"/>
<circle fill="#665778" cx="480.09" cy="279.91" r="0.72"/>
<path fill="#815F55" d="M501.06 267.13c0 1.1-0.9 2-2 2H493.5c-1.1 0-2-0.9-2-2v-5.44c0-1.1 0.9-2 2-2h5.56c1.1 0 2 0.9 2 2V267.13z"/>
<path fill="#070200" d="M501.06 266.56c0 1.1-0.9 2-2 2H493.5c-1.1 0-2-0.9-2-2v-5.44c0-1.1 0.9-2 2-2h5.56c1.1 0 2 0.9 2 2V266.56z"/>
<path fill="#192123" d="M500.56 266.28c0 0.99-0.8 1.79-1.79 1.79h-4.98c-0.99 0-1.79-0.8-1.79-1.79v-4.87c0-0.99 0.8-1.79 1.79-1.79h4.98c0.99 0 1.79 0.8 1.79 1.79V266.28z"/>
<linearGradient id="SVGID_6_" gradientUnits="userSpaceOnUse" x1="493.21" y1="260.77" x2="499.36" y2="266.92">
<stop offset="0" stop-color="#061115"/>
<stop offset="0.21" stop-color="#0B181B"/>
<stop offset="0.5" stop-color="#192A2A"/>
<stop offset="0.85" stop-color="#2F4943"/>
<stop offset="1" stop-color="#3A5850"/>
</linearGradient>
<path fill="url(#SVGID_6_)" d="M499.81 265.85c0 0.82-0.66 1.48-1.48 1.48h-4.11c-0.82 0-1.48-0.66-1.48-1.48v-4.02c0-0.81 0.66-1.48 1.48-1.48h4.11c0.82 0 1.48 0.66 1.48 1.48V265.85z"/>
<circle fill="#180D13" cx="496.34" cy="263.84" r="2.66"/>
<linearGradient id="SVGID_7_" gradientUnits="userSpaceOnUse" x1="496.34" y1="266.13" x2="496.34" y2="261.56">
<stop offset="0" stop-color="#302536"/>
<stop offset="0.48" stop-color="#2B283D"/>
<stop offset="1" stop-color="#212F4A"/>
</linearGradient>
<circle fill="url(#SVGID_7_)" cx="496.34" cy="263.84" r="2.28"/>
<circle opacity="0.25" fill="#FFFFFF" cx="497.42" cy="262.25" r="0.54"/>
<circle opacity="0.25" fill="#FFFFFF" cx="498.25" cy="262.83" r="0.42"/>
<linearGradient id="SVGID_8_" gradientUnits="userSpaceOnUse" x1="460.48" y1="270.93" x2="460.48" y2="256.01">
<stop offset="0" stop-color="#822C37"/>
<stop offset="0" stop-color="#872C38"/>
<stop offset="0.03" stop-color="#A62D3F"/>
<stop offset="0.07" stop-color="#C22F45"/>
<stop offset="0.11" stop-color="#D82F4A"/>
<stop offset="0.16" stop-color="#E9304E"/>
<stop offset="0.21" stop-color="#F43150"/>
<stop offset="0.29" stop-color="#FB3152"/>
<stop offset="0.51" stop-color="#FD3152"/>
<stop offset="0.71" stop-color="#C62F46"/>
<stop offset="0.9" stop-color="#952D3B"/>
<stop offset="1" stop-color="#822C37"/>
</linearGradient>
<path fill="url(#SVGID_8_)" d="M461.7 256.01c-0.88 0.04-1.71 0.27-2.45 0.66v14.26h2.45V256.01z"/>
<linearGradient id="SVGID_9_" gradientUnits="userSpaceOnUse" x1="462.91" y1="270.94" x2="462.91" y2="256">
<stop offset="0" stop-color="#A06A2A"/>
<stop offset="0.01" stop-color="#A9762C"/>
<stop offset="0.05" stop-color="#BE9131"/>
<stop offset="0.09" stop-color="#CEA736"/>
<stop offset="0.14" stop-color="#DBB839"/>
<stop offset="0.2" stop-color="#E4C33B"/>
<stop offset="0.28" stop-color="#EACA3D"/>
<stop offset="0.51" stop-color="#EBCC3D"/>
<stop offset="0.64" stop-color="#D4AE37"/>
<stop offset="0.88" stop-color="#AF7D2E"/>
<stop offset="1" stop-color="#A06A2A"/>
</linearGradient>
<rect x="461.67" y="256" fill="url(#SVGID_9_)" width="2.47" height="14.94"/>
<linearGradient id="SVGID_10_" gradientUnits="userSpaceOnUse" x1="465.36" y1="270.94" x2="465.36" y2="256">
<stop offset="0" stop-color="#3C694A"/>
<stop offset="0.01" stop-color="#407150"/>
<stop offset="0.05" stop-color="#4D8C65"/>
<stop offset="0.09" stop-color="#58A275"/>
<stop offset="0.14" stop-color="#60B382"/>
<stop offset="0.2" stop-color="#66BE8B"/>
<stop offset="0.28" stop-color="#69C591"/>
<stop offset="0.51" stop-color="#6AC792"/>
<stop offset="0.63" stop-color="#5DAD7E"/>
<stop offset="0.88" stop-color="#457C59"/>
<stop offset="1" stop-color="#3C694A"/>
</linearGradient>
<rect x="464.13" y="256" fill="url(#SVGID_10_)" width="2.47" height="14.94"/>
<linearGradient id="SVGID_11_" gradientUnits="userSpaceOnUse" x1="467.82" y1="270.94" x2="467.82" y2="256">
<stop offset="0" stop-color="#2456D3"/>
<stop offset="0.02" stop-color="#2B60DC"/>
<stop offset="0.08" stop-color="#3871EB"/>
<stop offset="0.15" stop-color="#417CF6"/>
<stop offset="0.24" stop-color="#4683FC"/>
<stop offset="0.51" stop-color="#4785FE"/>
<stop offset="0.78" stop-color="#3269E4"/>
<stop offset="1" stop-color="#2456D3"/>
</linearGradient>
<rect x="466.59" y="256" fill="url(#SVGID_11_)" width="2.47" height="14.94"/>
</svg>
