<svg xmlns="http://www.w3.org/2000/svg" version="1.1" xmlns:dc="http://purl.org/dc/elements/1.1/" viewBox="0 0 22.818 23.133001" height="32px" width="32px">
<style type="text/css">
.st0{fill-rule:evenodd;clip-rule:evenodd;fill:#44545C;}
.st1{fill-rule:evenodd;clip-rule:evenodd;fill:#B7C8D0;}
.st2{fill:#FFF;}
.st3{fill-rule:evenodd;clip-rule:evenodd;fill:#FFFFFF;}
</style>
<g transform="translate(-1.191,-1.033)">
<rect fill-rule="evenodd" class="st0" height="21.132999" width="20.818001" y="2.033" x="2.191" fill="#44545c"/>
<path d="m2.191,2.033h20.818v11.77c-2.759-0.722-5.787-1.121-8.966-1.121-4.33,0-8.383,0.741-11.852,2.031v-12.68z" fill-rule="evenodd" class="st1" fill="#b7c8d0"/>
<path fill="#FFF" class="st2" d="m2.191,1.033h21.818v23.133h-22.818v-23.133h1zm19.818,2h-18.818v19.133h18.818v-19.133z"/>
<path d="m6.224,16.7c1.249,0.036,2.961,0,3.889-1.034-1.13-0.084-1.76-0.381-2.426-1.856h1.035c-1.582-0.56-1.987-1.69-2.07-2.748,0.357,0.06,0.713,0.119,1.07,0.179-0.794-0.815-1.438-1.509-0.642-3.568,1.308,1.403,2.331,2.485,5.53,2.926-0.26-3.974,3.723-3.736,4.782-2.499,0.56-0.062,1.146-0.366,1.67-0.592-0.095,0.701-0.675,1.067-1.091,1.448,0.428,0.096,0.913-0.145,1.455-0.428-0.338,0.642-0.89,1.177-1.355,1.392,0.066,8.691-9.065,9.439-11.847,6.78z" fill-rule="evenodd" class="st3" fill="#FFF"/>
</g>
</svg>
