<svg xmlns="http://www.w3.org/2000/svg" version="1.1" id="Icon" x="0" y="0" viewBox="0 0 48 48" enable-background="new 0 0 48 48" xml:space="preserve">
<linearGradient id="SVGID_1_" gradientUnits="userSpaceOnUse" x1="24" y1="0" x2="24" y2="48">
<stop offset="0" stop-color="#4BD0EF"/>
<stop offset="1" stop-color="#29AAE1"/>
</linearGradient>
<path fill-rule="evenodd" clip-rule="evenodd" fill="url(#SVGID_1_)" d="M48 42c0 3.31-2.69 6-6 6H6c-3.31 0-6-2.69-6-6V6c0-3.31 2.69-6 6-6h36c3.31 0 6 2.69 6 6V42z"/>
<path fill="#29AAE1" d="M40.23 13.41c-1.12 0.5-2.32 0.83-3.59 0.98 1.29-0.77 2.28-2 2.75-3.46 -1.21 0.72-2.54 1.24-3.97 1.52 -1.14-1.21-2.76-1.97-4.56-1.97 -3.45 0-6.25 2.8-6.25 6.25 0 0.49 0.06 0.97 0.16 1.42 -5.19-0.26-9.79-2.75-12.88-6.53 -0.54 0.92-0.85 2-0.85 3.14 0 2.17 1.1 4.08 2.78 5.2 -1.02-0.03-1.99-0.31-2.83-0.78 0 0.03 0 0.05 0 0.08 0 3.03 2.15 5.55 5.01 6.13 -0.52 0.14-1.08 0.22-1.65 0.22 -0.4 0-0.79-0.04-1.18-0.11 0.8 2.48 3.1 4.29 5.84 4.34 -2.14 1.68-4.83 2.68-7.76 2.68 -0.5 0-1-0.03-1.49-0.09 2.77 1.77 6.05 2.81 9.58 2.81 11.49 0 17.77-9.52 17.77-17.77 0-0.27-0.01-0.54-0.02-0.81C38.33 15.77 39.39 14.67 40.23 13.41z"/>
<path fill="#FFFFFF" d="M40.23 14.74c-1.12 0.5-2.32 0.83-3.59 0.98 1.29-0.77 2.28-2 2.75-3.46 -1.21 0.72-2.54 1.24-3.97 1.52 -1.14-1.21-2.76-1.97-4.56-1.97 -3.45 0-6.25 2.8-6.25 6.25 0 0.49 0.06 0.97 0.16 1.42 -5.19-0.26-9.79-2.75-12.88-6.53 -0.54 0.92-0.85 2-0.85 3.14 0 2.17 1.1 4.08 2.78 5.2 -1.02-0.03-1.99-0.31-2.83-0.78 0 0.03 0 0.05 0 0.08 0 3.03 2.15 5.55 5.01 6.13 -0.52 0.14-1.08 0.22-1.65 0.22 -0.4 0-0.79-0.04-1.18-0.11 0.8 2.48 3.1 4.29 5.84 4.34 -2.14 1.68-4.83 2.68-7.76 2.68 -0.5 0-1-0.03-1.49-0.09 2.77 1.77 6.05 2.81 9.58 2.81 11.49 0 17.77-9.52 17.77-17.77 0-0.27-0.01-0.54-0.02-0.81C38.33 17.09 39.39 15.99 40.23 14.74z"/>
</svg>
