<svg xmlns="http://www.w3.org/2000/svg" version="1.1" viewBox="0 0 28.29 28.29" height="36" width="36">
<g transform="translate(-0.254,-0.254)">
<linearGradient id="SVGID_1_" y2="28.8" gradientUnits="userSpaceOnUse" x2="0" gradientTransform="translate(14.4004,-28.5469)" y1="57.09">
<stop stop-color="#1e262a" offset="0.33"/>
<stop stop-color="#6f7f87" offset="0.67"/>
</linearGradient>
<path fill-rule="evenodd" fill="url(#SVGID_1_)" d="m14.4 0.25c0.96 0 1.89 0.1 2.8 0.28 0.62 1.8 2.33 3.08 4.34 3.08 0.58 0 1.14-0.11 1.65-0.3 0.78 0.62 1.49 1.32 2.13 2.08-0.31 0.62-0.48 1.31-0.48 2.05 0 2.16 1.49 3.97 3.5 4.46 0.14 0.81 0.22 1.65 0.22 2.5 0 0.46-0.02 0.92-0.07 1.37-1.89 0.57-3.27 2.32-3.27 4.4 0 0.9 0.26 1.74 0.71 2.44-0.77 1.08-1.69 2.05-2.73 2.87-0.55-0.23-1.16-0.37-1.8-0.37-2.04 0-3.77 1.34-4.37 3.18-0.85 0.16-1.72 0.24-2.61 0.24-0.71 0-1.41-0.05-2.1-0.15-0.56-1.9-2.32-3.28-4.4-3.28-0.76 0-1.48 0.19-2.11 0.52-1.03-0.79-1.95-1.73-2.73-2.77 0.41-0.69 0.64-1.49 0.64-2.35 0-2.1-1.42-3.88-3.35-4.42-0.07-0.55-0.1-1.12-0.1-1.69 0-0.86 0.08-1.71 0.23-2.53 2.06-0.45 3.61-2.29 3.61-4.49 0-0.75-0.18-1.47-0.5-2.1 0.79-0.93 1.69-1.76 2.69-2.46 0.59 0.28 1.25 0.43 1.94 0.43 1.93 0 3.58-1.19 4.26-2.87 0.63-0.09 1.27-0.13 1.93-0.13z"/>
<ellipse d="m 20.399,13.996 c 0,2.964665 -2.529592,5.368 -5.65,5.368 -3.120409,0 -5.6500005,-2.403335 -5.6500005,-5.368 0,-2.964664 2.5295915,-5.3679997 5.6500005,-5.3679997 3.120408,0 5.65,2.4033357 5.65,5.3679997 z" fill-rule="evenodd" rx="5.65" ry="5.37" stroke="#231f20" cy="14" cx="14.75" stroke-miterlimit="2.41" stroke-width="1.07" fill="#FFF"/>
<linearGradient id="SVGID_2_" y2="28.8" gradientUnits="userSpaceOnUse" x2="0" gradientTransform="translate(14.7202,-24.3008)" y1="47.85">
<stop stop-color="#74848b" offset="0.25"/>
<stop stop-color="#0c1c23" offset="0.75"/>
</linearGradient>
<path fill="url(#SVGID_2_)" d="m14.72 4.5c2.63 0 5.01 1.07 6.74 2.79 1.72 1.73 2.79 4.11 2.79 6.74 0 2.63-1.07 5.01-2.79 6.74s-4.11 2.79-6.73 2.79-5.01-1.07-6.73-2.79-2.79-4.11-2.79-6.73 1.07-5.01 2.79-6.73 4.11-2.79 6.74-2.79zm5.32 4.2c-1.36-1.36-3.24-2.2-5.32-2.2s-3.96 0.84-5.32 2.2c-1.36 1.36-2.2 3.24-2.2 5.32s0.84 3.96 2.2 5.32c1.36 1.36 3.24 2.2 5.32 2.2s3.96-0.84 5.32-2.2c1.36-1.36 2.2-3.24 2.2-5.32 0-2.08-0.84-3.96-2.2-5.32z"/>
<linearGradient id="SVGID_3_" y2="47.85" gradientUnits="userSpaceOnUse" x2="0" gradientTransform="matrix(0.8037,0,0,0.7899,14.7203,-16.2493)" y1="28.8">
<stop stop-color="#aabac2" offset="0.25"/>
<stop stop-color="#22333b" offset="0.75"/>
</linearGradient>
<path fill="url(#SVGID_3_)" d="m14.72 6.5c2.11 0 4.03 0.84 5.41 2.2 1.39 1.36 2.24 3.24 2.24 5.32s-0.86 3.96-2.24 5.32c-1.39 1.36-3.3 2.2-5.41 2.2s-4.03-0.84-5.41-2.2c-1.38-1.36-2.24-3.24-2.24-5.32s0.86-3.96 2.24-5.32c1.39-1.36 3.3-2.2 5.41-2.2zm4.28 3.32c-1.09-1.08-2.61-1.74-4.28-1.74s-3.18 0.67-4.28 1.74-1.77 2.56-1.77 4.2 0.68 3.13 1.77 4.2c1.1 1.08 2.61 1.74 4.28 1.74s3.18-0.67 4.28-1.74c1.1-1.08 1.77-2.56 1.77-4.2s-0.68-3.13-1.77-4.2z"/>
</g>
</svg>
