<svg xmlns="http://www.w3.org/2000/svg" version="1.1" id="Icon" x="0" y="0" viewBox="0 0 48 48" enable-background="new 0 0 48 48" xml:space="preserve">
<linearGradient id="SVGID_1_" gradientUnits="userSpaceOnUse" x1="24" y1="0" x2="24" y2="48">
<stop offset="0" stop-color="#FFFFFF"/>
<stop offset="1" stop-color="#EAEAEA"/>
</linearGradient>
<path fill-rule="evenodd" clip-rule="evenodd" fill="url(#SVGID_1_)" d="M48 42c0 3.31-2.69 6-6 6H6c-3.31 0-6-2.69-6-6V6c0-3.31 2.69-6 6-6h36c3.31 0 6 2.69 6 6V42z"/>
<linearGradient id="SVGID_2_" gradientUnits="userSpaceOnUse" x1="24.5" y1="23" x2="24.5" y2="42">
<stop offset="0" stop-color="#E16D35"/>
<stop offset="1" stop-color="#C93D1D"/>
</linearGradient>
<path fill-rule="evenodd" clip-rule="evenodd" fill="url(#SVGID_2_)" d="M38 39.72C38 40.98 36.98 42 35.72 42H13.28C12.02 42 11 40.98 11 39.72V25.28C11 24.02 12.02 23 13.28 23h22.44C36.98 23 38 24.02 38 25.28V39.72z"/>
<path fill="#C93D1D" d="M13.66 28.02h2.06v9.64h1.51v-9.64h2.06V25.83h-5.62V28.02zM23.22 33.58c0 0.87-0.08 1.5-0.25 1.88s-0.44 0.57-0.81 0.57c-0.33 0-0.55-0.17-0.68-0.52 -0.13-0.35-0.19-0.87-0.19-1.58v-4.84h-1.36v5.27c0 0.53 0.03 1.01 0.08 1.45 0.06 0.44 0.15 0.81 0.28 1.11 0.14 0.3 0.32 0.54 0.55 0.7 0.23 0.17 0.53 0.25 0.9 0.25 0.29 0 0.57-0.11 0.85-0.33 0.28-0.22 0.5-0.58 0.67-1.08h0.03v1.19h1.3v-8.56h-1.36V33.58zM29.97 29.94c-0.19-0.36-0.41-0.64-0.66-0.81 -0.24-0.18-0.49-0.26-0.74-0.26 -0.31 0-0.6 0.1-0.89 0.31s-0.51 0.53-0.68 0.97h-0.02V25.83h-1.36v11.83h1.3v-1.09h0.02c0.15 0.48 0.37 0.81 0.65 1.01 0.29 0.2 0.62 0.3 0.98 0.3 0.25 0 0.5-0.09 0.74-0.26 0.24-0.18 0.46-0.45 0.66-0.81 0.2-0.36 0.35-0.83 0.48-1.4 0.12-0.57 0.18-1.25 0.18-2.03s-0.06-1.46-0.18-2.03C30.33 30.77 30.17 30.3 29.97 29.94zM29.2 34.41c-0.04 0.33-0.11 0.62-0.21 0.88 -0.1 0.25-0.22 0.46-0.36 0.6s-0.32 0.22-0.52 0.22c-0.2 0-0.37-0.07-0.52-0.22s-0.27-0.35-0.36-0.6c-0.1-0.25-0.17-0.55-0.21-0.88s-0.07-0.67-0.07-1.03c0-0.36 0.02-0.71 0.07-1.04 0.05-0.33 0.12-0.62 0.21-0.88 0.1-0.25 0.22-0.45 0.37-0.6s0.32-0.22 0.52-0.22c0.2 0 0.38 0.07 0.52 0.22s0.27 0.35 0.36 0.6c0.1 0.26 0.17 0.55 0.21 0.88 0.05 0.33 0.07 0.68 0.07 1.04C29.27 33.74 29.25 34.08 29.2 34.41zM34.56 35.76c-0.2 0.24-0.44 0.36-0.71 0.36 -0.38 0-0.68-0.17-0.88-0.51 -0.21-0.34-0.32-0.89-0.34-1.66h3.59c0.03-0.66-0.01-1.3-0.1-1.9s-0.23-1.15-0.44-1.62c-0.2-0.48-0.46-0.85-0.77-1.13 -0.31-0.28-0.68-0.42-1.1-0.42 -0.38 0-0.72 0.12-1.03 0.35 -0.31 0.23-0.58 0.55-0.8 0.95 -0.22 0.4-0.4 0.88-0.52 1.43 -0.12 0.55-0.18 1.15-0.18 1.79 0 0.66 0.06 1.27 0.18 1.82 0.12 0.55 0.29 1.03 0.51 1.43s0.48 0.7 0.8 0.92c0.31 0.22 0.67 0.32 1.06 0.32 0.56 0 1.05-0.22 1.44-0.66 0.4-0.44 0.69-1.18 0.88-2.2H34.92C34.88 35.27 34.75 35.52 34.56 35.76zM32.69 31.89c0.04-0.21 0.1-0.41 0.18-0.6 0.09-0.19 0.2-0.35 0.35-0.47 0.14-0.13 0.33-0.19 0.54-0.19 0.33 0 0.58 0.16 0.75 0.46 0.16 0.31 0.28 0.76 0.34 1.36h-2.22C32.63 32.29 32.65 32.1 32.69 31.89z"/>
<path fill="#FFFFFF" d="M19.01 14.79l-2.1-5.74h-1.11l2.71 7.13v4.93h0.93v-4.93l2.68-7.13h-1.06L19.01 14.79zM26.78 13.5c-0.21-0.41-0.47-0.73-0.77-0.97 -0.3-0.24-0.66-0.35-1.06-0.35 -0.4 0-0.75 0.12-1.06 0.35 -0.31 0.24-0.56 0.56-0.77 0.97 -0.21 0.41-0.37 0.9-0.47 1.45s-0.16 1.16-0.16 1.8 0.05 1.24 0.16 1.79c0.1 0.55 0.26 1.03 0.47 1.45 0.21 0.41 0.47 0.73 0.77 0.96s0.66 0.35 1.06 0.35c0.41 0 0.76-0.11 1.06-0.35s0.56-0.55 0.77-0.96 0.37-0.89 0.47-1.44c0.1-0.55 0.16-1.15 0.16-1.79s-0.05-1.24-0.16-1.8S26.99 13.91 26.78 13.5zM26.41 18.16c-0.08 0.41-0.19 0.76-0.34 1.03 -0.14 0.28-0.31 0.49-0.5 0.63 -0.19 0.15-0.4 0.22-0.61 0.22s-0.42-0.07-0.61-0.22c-0.19-0.15-0.36-0.36-0.5-0.63 -0.14-0.28-0.26-0.62-0.34-1.03 -0.08-0.41-0.12-0.88-0.12-1.41 0-0.53 0.04-1 0.12-1.41 0.08-0.41 0.19-0.76 0.34-1.04 0.14-0.28 0.31-0.5 0.51-0.64 0.19-0.15 0.4-0.22 0.61-0.22s0.42 0.07 0.61 0.22c0.19 0.15 0.36 0.36 0.51 0.64 0.14 0.28 0.26 0.63 0.34 1.04 0.08 0.41 0.12 0.88 0.12 1.41C26.53 17.28 26.49 17.75 26.41 18.16zM31.76 12.38v4.93c0 0.4-0.03 0.76-0.09 1.09 -0.06 0.33-0.15 0.62-0.28 0.87 -0.12 0.25-0.28 0.44-0.47 0.57 -0.19 0.14-0.41 0.2-0.66 0.2 -0.32 0-0.57-0.16-0.75-0.47 -0.18-0.31-0.27-0.74-0.27-1.28v-5.91h-0.83v5.75c0 0.47 0.03 0.9 0.08 1.29s0.15 0.72 0.29 1c0.14 0.28 0.32 0.5 0.54 0.65 0.22 0.15 0.5 0.23 0.83 0.23 0.37 0 0.7-0.13 0.97-0.38s0.5-0.65 0.68-1.19h0.02v1.39h0.78v-8.73H31.76z"/>
<path fill="#FFFFFF" d="M13.66 29.02h2.06v9.64h1.51v-9.64h2.06V26.83h-5.62V29.02zM23.22 34.58c0 0.87-0.08 1.5-0.25 1.88s-0.44 0.57-0.81 0.57c-0.33 0-0.55-0.17-0.68-0.52 -0.13-0.35-0.19-0.87-0.19-1.58v-4.84h-1.36v5.27c0 0.53 0.03 1.01 0.08 1.45 0.06 0.44 0.15 0.81 0.28 1.11 0.14 0.3 0.32 0.54 0.55 0.7 0.23 0.17 0.53 0.25 0.9 0.25 0.29 0 0.57-0.11 0.85-0.33 0.28-0.22 0.5-0.58 0.67-1.08h0.03v1.19h1.3v-8.56h-1.36V34.58zM29.97 30.94c-0.19-0.36-0.41-0.64-0.66-0.81 -0.24-0.18-0.49-0.26-0.74-0.26 -0.31 0-0.6 0.1-0.89 0.31s-0.51 0.53-0.68 0.97h-0.02V26.83h-1.36v11.83h1.3v-1.09h0.02c0.15 0.48 0.37 0.81 0.65 1.01 0.29 0.2 0.62 0.3 0.98 0.3 0.25 0 0.5-0.09 0.74-0.26 0.24-0.18 0.46-0.45 0.66-0.81 0.2-0.36 0.35-0.83 0.48-1.4 0.12-0.57 0.18-1.25 0.18-2.03s-0.06-1.46-0.18-2.03C30.33 31.77 30.17 31.3 29.97 30.94zM29.2 35.41c-0.04 0.33-0.11 0.62-0.21 0.88 -0.1 0.25-0.22 0.46-0.36 0.6s-0.32 0.22-0.52 0.22c-0.2 0-0.37-0.07-0.52-0.22s-0.27-0.35-0.36-0.6c-0.1-0.25-0.17-0.55-0.21-0.88s-0.07-0.67-0.07-1.03c0-0.36 0.02-0.71 0.07-1.04 0.05-0.33 0.12-0.62 0.21-0.88 0.1-0.25 0.22-0.45 0.37-0.6s0.32-0.22 0.52-0.22c0.2 0 0.38 0.07 0.52 0.22s0.27 0.35 0.36 0.6c0.1 0.26 0.17 0.55 0.21 0.88 0.05 0.33 0.07 0.68 0.07 1.04C29.27 34.74 29.25 35.08 29.2 35.41zM34.56 36.76c-0.2 0.24-0.44 0.36-0.71 0.36 -0.38 0-0.68-0.17-0.88-0.51 -0.21-0.34-0.32-0.89-0.34-1.66h3.59c0.03-0.66-0.01-1.3-0.1-1.9s-0.23-1.15-0.44-1.62c-0.2-0.48-0.46-0.85-0.77-1.13 -0.31-0.28-0.68-0.42-1.1-0.42 -0.38 0-0.72 0.12-1.03 0.35 -0.31 0.23-0.58 0.55-0.8 0.95 -0.22 0.4-0.4 0.88-0.52 1.43 -0.12 0.55-0.18 1.15-0.18 1.79 0 0.66 0.06 1.27 0.18 1.82 0.12 0.55 0.29 1.03 0.51 1.43s0.48 0.7 0.8 0.92c0.31 0.22 0.67 0.32 1.06 0.32 0.56 0 1.05-0.22 1.44-0.66 0.4-0.44 0.69-1.18 0.88-2.2H34.92C34.88 36.27 34.75 36.52 34.56 36.76zM32.69 32.89c0.04-0.21 0.1-0.41 0.18-0.6 0.09-0.19 0.2-0.35 0.35-0.47 0.14-0.13 0.33-0.19 0.54-0.19 0.33 0 0.58 0.16 0.75 0.46 0.16 0.31 0.28 0.76 0.34 1.36h-2.22C32.63 33.29 32.65 33.1 32.69 32.89z"/>
<path fill="#4C4C4C" d="M19.01 13.98l-2.1-5.74h-1.11l2.71 7.13v4.93h0.93v-4.93l2.68-7.13h-1.06L19.01 13.98zM26.78 12.69c-0.21-0.41-0.47-0.73-0.77-0.97 -0.3-0.24-0.66-0.35-1.06-0.35 -0.4 0-0.75 0.12-1.06 0.35 -0.31 0.24-0.56 0.56-0.77 0.97 -0.21 0.41-0.37 0.9-0.47 1.45s-0.16 1.16-0.16 1.8 0.05 1.24 0.16 1.79c0.1 0.55 0.26 1.03 0.47 1.45 0.21 0.41 0.47 0.73 0.77 0.96s0.66 0.35 1.06 0.35c0.41 0 0.76-0.11 1.06-0.35s0.56-0.55 0.77-0.96 0.37-0.89 0.47-1.44c0.1-0.55 0.16-1.15 0.16-1.79s-0.05-1.24-0.16-1.8S26.99 13.1 26.78 12.69zM26.41 17.35c-0.08 0.41-0.19 0.76-0.34 1.03 -0.14 0.28-0.31 0.49-0.5 0.63 -0.19 0.15-0.4 0.22-0.61 0.22s-0.42-0.07-0.61-0.22c-0.19-0.15-0.36-0.36-0.5-0.63 -0.14-0.28-0.26-0.62-0.34-1.03 -0.08-0.41-0.12-0.88-0.12-1.41 0-0.53 0.04-1 0.12-1.41 0.08-0.41 0.19-0.76 0.34-1.04 0.14-0.28 0.31-0.5 0.51-0.64 0.19-0.15 0.4-0.22 0.61-0.22s0.42 0.07 0.61 0.22c0.19 0.15 0.36 0.36 0.51 0.64 0.14 0.28 0.26 0.63 0.34 1.04 0.08 0.41 0.12 0.88 0.12 1.41C26.53 16.47 26.49 16.94 26.41 17.35zM31.76 11.56v4.93c0 0.4-0.03 0.76-0.09 1.09 -0.06 0.33-0.15 0.62-0.28 0.87 -0.12 0.25-0.28 0.44-0.47 0.57 -0.19 0.14-0.41 0.2-0.66 0.2 -0.32 0-0.57-0.16-0.75-0.47 -0.18-0.31-0.27-0.74-0.27-1.28v-5.91h-0.83v5.75c0 0.47 0.03 0.9 0.08 1.29s0.15 0.72 0.29 1c0.14 0.28 0.32 0.5 0.54 0.65 0.22 0.15 0.5 0.23 0.83 0.23 0.37 0 0.7-0.13 0.97-0.38s0.5-0.65 0.68-1.19h0.02v1.39h0.78v-8.73H31.76z"/>
</svg>
