<?xml version="1.0" encoding="utf-8"?><svg xmlns="http://www.w3.org/2000/svg" xmlns:xlink="http://www.w3.org/1999/xlink"><symbol viewBox="0 0 13.4 10.1" id="check" xmlns="http://www.w3.org/2000/svg"><path d="M4.3 10.1 0 6l1.4-1.4 2.9 2.7L12 0l1.4 1.4z"/></symbol><symbol viewBox="0 0 14 9" id="chevron-down" xmlns="http://www.w3.org/2000/svg"><path d="M.238 1.938 1.647.517 7 5.819 12.354.517l1.408 1.421L7 8.636z"/></symbol><symbol viewBox="0 0 16 16" id="copy" xmlns="http://www.w3.org/2000/svg"><path d="M14 6H9c-.3 0-.5-.2-.5-.5v-5C8.5.2 8.3 0 8 0H5c-.3 0-.5.2-.5.5v12c0 .3.2.5.5.5h9c.3 0 .5-.2.5-.5v-6c0-.3-.2-.5-.5-.5zm-4-1h4c.3 0 .3-.2.1-.4L9.9.3c-.2-.2-.4-.1-.4.1v4c0 .3.2.5.5.5z"/><path d="m11 14-7 .2c-.3 0-.5-.2-.5-.5V3.5c0-.3-.2-.5-.5-.5H2c-.3 0-.5.2-.5.5v12c0 .3.2.5.5.5h9c.3 0 .5-.2.5-.5v-1c0-.3-.2-.5-.5-.5z"/></symbol><symbol viewBox="0 0 16 16" id="cycle" xmlns="http://www.w3.org/2000/svg"><clipPath id="da"><path d="M0 0h16v16H0z"/></clipPath><g clip-path="url(#da)"><path clip-rule="evenodd" d="M14.253 12.218c.07-.129.198-.385.198-.385.78-1.777.839-3.85-.02-5.747-1.066-2.36-3.288-3.83-5.707-4.097l.899-.612A.75.75 0 0 0 9.82.33.75.75 0 0 0 8.774.133L6.276 1.84a.75.75 0 0 0-.198 1.046l1.748 2.568a.75.75 0 0 0 1.046.197.75.75 0 0 0 .198-1.047l-.83-1.214c2.074.109 3.98 1.323 4.878 3.298.74 1.619.612 3.416-.158 4.917a7.95 7.95 0 0 1-.277.493c-.03.05-.069.099-.108.148a5.642 5.642 0 0 1-2.222 1.837c-1.708.78-3.613.612-5.154-.277-.049-.03-.108-.059-.158-.089a7.066 7.066 0 0 1-.622-.444c-.04-.03-.088-.069-.128-.108a8.192 8.192 0 0 1-.513-.504 5.353 5.353 0 0 1-.919-1.382c-1.056-2.33-.375-5.036 1.52-6.675a.718.718 0 0 0 .08-1.007.718.718 0 0 0-1.007-.079C1.112 5.533.233 8.91 1.576 11.852c.257.573 1.145 1.718 1.195 1.778.187.207.375.395.582.582.07.07.148.128.227.188.227.187.464.355.711.513l.267.148c.187.099.562.287.562.287 1.797.82 3.91.908 5.835.03a6.76 6.76 0 0 0 1.314-.8c.098-.03 1.125-1.018 1.47-1.511.05-.08.11-.148.159-.227.128-.198.237-.415.345-.622z" fill-rule="evenodd"/></g></symbol><symbol viewBox="0 0 16 16" id="ex" xmlns="http://www.w3.org/2000/svg"><path d="M13 3 3 13m10 0L3 3M12.5 13.5 8 9.1l-4.5 4.4-1-1L6.9 8 2.5 3.5l1-1L8 6.9l4.5-4.4 1 1L9.1 8l4.4 4.5z"/></symbol><symbol viewBox="0 0 16 16" id="file" xmlns="http://www.w3.org/2000/svg"><path d="M12.502 7h-5A.503.503 0 0 1 7 6.5v-5c0-.275-.225-.5-.5-.5h-3c-.275 0-.5.225-.5.5v12.029c0 .275.225.5.5.5h9.002c.275 0 .5-.225.5-.5V7.5c0-.275-.225-.5-.5-.5zm-4-1h4c.275 0 .34-.159.146-.354L8.355 1.354c-.195-.195-.353-.129-.353.146v4c0 .275.225.5.5.5z"/></symbol><symbol viewBox="0 0 16 16" id="grid" xmlns="http://www.w3.org/2000/svg"><path d="M10.5 9h3a1.5 1.5 0 0 1 1.5 1.5v3a1.5 1.5 0 0 1-1.5 1.5h-3A1.5 1.5 0 0 1 9 13.5v-3A1.5 1.5 0 0 1 10.5 9zm-8 0h3A1.5 1.5 0 0 1 7 10.5v3A1.5 1.5 0 0 1 5.5 15h-3A1.5 1.5 0 0 1 1 13.5v-3A1.5 1.5 0 0 1 2.5 9zm8-8h3A1.5 1.5 0 0 1 15 2.5v3A1.5 1.5 0 0 1 13.5 7h-3A1.5 1.5 0 0 1 9 5.5v-3A1.5 1.5 0 0 1 10.5 1zm-8 0h3A1.5 1.5 0 0 1 7 2.5v3A1.5 1.5 0 0 1 5.5 7h-3A1.5 1.5 0 0 1 1 5.5v-3A1.5 1.5 0 0 1 2.5 1z"/></symbol><symbol viewBox="0 0 18 14" id="live" xmlns="http://www.w3.org/2000/svg"><clipPath id="ha"><path d="M0 .118h18v13.764H0z"/></clipPath><g clip-path="url(#ha)"><path d="M12.214 6.993s-.006-.067-.006-.101c0-.175-.02-.35-.052-.533-.012-.088-.045-.169-.064-.256-.026-.102-.051-.21-.09-.31-.026-.075-.064-.15-.096-.223-.045-.102-.09-.21-.142-.304-.032-.06-.077-.122-.115-.176a2.314 2.314 0 0 0-.206-.29c-.039-.047-.077-.08-.116-.128-.09-.094-.173-.196-.276-.277-.032-.026-.071-.053-.103-.08a3.301 3.301 0 0 0-.347-.25c-.032-.02-.065-.034-.09-.047a2.828 2.828 0 0 0-.405-.196c-.026-.014-.058-.014-.084-.027A3.053 3.053 0 0 0 9 3.613c-1.774 0-3.214 1.504-3.22 3.367 0 .033.006.067.006.101 0 .175.019.35.051.533.013.088.045.169.064.256.026.102.052.21.09.31.026.075.065.15.097.223.045.102.09.21.141.304.032.06.077.115.116.176.064.1.129.202.206.29.038.047.077.08.115.128.09.094.174.196.277.276.032.027.07.054.103.081.109.088.225.176.347.25.032.02.058.034.09.047.128.075.263.142.405.196.026.014.058.014.083.027.322.115.669.182 1.023.182 1.774 0 3.214-1.504 3.22-3.367zm-5.143-.007c0-1.12.862-2.024 1.929-2.024.932 0 1.71.695 1.89 1.62.026.135.039.27.039.411 0 1.12-.862 2.024-1.929 2.024-.932 0-1.71-.695-1.89-1.619a2.177 2.177 0 0 1-.039-.411zM5.361 2.223a.62.62 0 0 0-.906 0c-2.507 2.631-2.507 6.91 0 9.54.25.264.656.264.906 0a.696.696 0 0 0 0-.95c-2.012-2.106-2.012-5.527 0-7.632a.696.696 0 0 0 0-.951zM13.545 2.223c-.231-.284-.636-.317-.906-.074a.697.697 0 0 0 0 1.025c2.012 2.105 2.012 5.526 0 7.632a.696.696 0 0 0 0 .951.62.62 0 0 0 .906 0c2.507-2.632 2.507-6.91 0-9.54z"/><path d="M1.286 6.993c0-2.145.81-4.21 2.256-5.728a.696.696 0 0 0 0-.952.62.62 0 0 0-.906 0c-3.517 3.691-3.517 9.67 0 13.36a.621.621 0 0 0 .906 0 .696.696 0 0 0 0-.951c-1.446-1.518-2.256-3.583-2.256-5.729zM15.364.313a.619.619 0 0 0-.906 0 .696.696 0 0 0 0 .952c3.015 3.157 3.028 8.286.02 11.45l-.02.02a.696.696 0 0 0 0 .952.621.621 0 0 0 .906 0c3.517-3.691 3.517-9.67 0-13.36z"/></g></symbol><symbol viewBox="0 0 16 16" id="pencil" xmlns="http://www.w3.org/2000/svg"><path d="m14.545 3.042-1.586-1.585a1.003 1.003 0 0 0-1.414 0L10.252 2.75l3 3 1.293-1.293a1.004 1.004 0 0 0 0-1.415zM5.25 13.751l-3-3 6.998-6.998 3 3zM.908 14.775c-.087.262.055.397.316.312l2.001-.667-1.65-1.646z"/></symbol><symbol viewBox="0 0 16 16" id="plus" xmlns="http://www.w3.org/2000/svg"><path d="M.656 9.023c0 .274.224.5.499.5l4.853.001a.501.501 0 0 1 .5.5l.001 4.853c-.001.273.227.5.501.5l1.995-.009a.51.51 0 0 0 .5-.503l.002-4.806c0-.272.228-.5.499-.502l4.831-.021a.515.515 0 0 0 .501-.502l.008-1.998a.5.5 0 0 0-.499-.5H9.995a.504.504 0 0 1-.501-.5l-.001-4.852a.5.5 0 0 0-.5-.499L6.997.693a.506.506 0 0 0-.502.502l-.019 4.831a.504.504 0 0 1-.501.5l-4.808-.001a.505.505 0 0 0-.502.501z"/></symbol><symbol viewBox="0 0 16 16" fill-rule="evenodd" id="show" xmlns="http://www.w3.org/2000/svg"><path d="M8 3C4.364 3 1.258 5.073 0 8c1.258 2.927 4.364 5 8 5s6.742-2.073 8-5c-1.258-2.927-4.364-5-8-5zm0 8a3 3 0 1 0 0-6 3 3 0 0 0 0 6z"/></symbol></svg>