<svg height="55" viewBox="0 0 64 55" width="64" xmlns="http://www.w3.org/2000/svg"><path d="m35.226 5c.333 0 .605.106.818.32.212.212.319.485.319.816v2.273c0 .332-.107.604-.32.817-.212.212-.484.32-.817.32h-24.999c-1.562 0-2.9.555-4.013 1.668s-1.669 2.45-1.669 4.013v29.545c0 1.563.556 2.9 1.669 4.013s2.45 1.668 4.013 1.668h29.546c1.562 0 2.9-.555 4.013-1.668 1.112-1.113 1.668-2.45 1.668-4.013v-11.362c0-.332.106-.604.32-.817.212-.213.484-.32.816-.32h2.273c.331 0 .604.107.817.32.214.213.32.485.32.818v11.363c0 2.817-1 5.226-3.001 7.226-2 2-4.41 3.001-7.226 3.001h-29.546c-2.817-.001-5.226-1.001-7.227-3.002-2-2-3-4.41-3-7.226v-29.546c0-2.817 1-5.226 3-7.226 2.001-2.001 4.41-3.001 7.227-3.001zm26.46-5c.627 0 1.17.229 1.627.686.457.458.687 1 .687 1.626v18.501c0 .626-.229 1.168-.687 1.626-.457.458-1 .687-1.626.687s-1.168-.23-1.626-.687l-6.36-6.36-23.558 23.56c-.24.24-.518.36-.831.36s-.59-.12-.831-.36l-4.12-4.12a1.142 1.142 0 0 1 -.361-.831c0-.313.12-.59.361-.83l23.559-23.56-6.36-6.36c-.457-.457-.686-1-.686-1.626s.229-1.168.687-1.626c.457-.457 1-.686 1.625-.686z" fill="#a9aeb1" fill-rule="evenodd"/></svg>