<svg viewBox="0 0 100.6 30.9" height="30.9" width="110" xmlns="http://www.w3.org/2000/svg"><style type="text/css">.st0{fill:#005ea2;}</style><path class="st0" d="M25 11.8c-1.2 4.3-5 7.3-9.5 7.4C11 19.1 7.2 16.1 6 11.8l0 0c0 0 2.2 2.3 0 0 0.6 0.7 1.5 1 2.4 1s1.8-0.3 2.4-1c0.6 0.7 1.5 1 2.4 1s1.8-0.3 2.4-1c0.6 0.7 1.5 1 2.4 1s1.8-0.3 2.4-1c0.6 0.7 1.5 1 2.4 1s1.8-0.3 2.4-1M25.1 9.6c0-5.3-4.3-9.6-9.6-9.6S5.9 4.3 5.9 9.6h8.6c-1.1-0.4-1.8-1.4-1.8-2.6 0-1.5 1.3-2.8 2.8-2.8s2.8 1.3 2.8 2.8c0 1.1-0.7 2.2-1.7 2.6H25.1M16.1 30.9c0.2-8.2 6.6-15.3 14.8-15.6C30.9 23.6 24.4 30.4 16.1 30.9M14.9 30.9C14.7 22.7 8.3 15.6 0 15.3 0.1 23.6 6.6 30.4 14.9 30.9"/><polyline class="st0" points="53.2 0.7 33.7 0.7 33.7 30.2 53.2 30.2 53.2 25.6 39.8 25.6 39.8 17.7 53.2 17.7 53.2 13 39.8 13 39.8 5.2 53.2 5.2 53.2 0.7 "/><path class="st0" d="M60.5 13h6c2 0 3.4-1.9 3.4-3.9 0.1-2-1.4-3.6-3.3-3.8H61v24.9h-6.3V0.7h13.8c4.5 0 7.8 3.9 7.8 8.4s-3.3 8.6-7.8 8.6h-8V13"/><polyline class="st0" points="70 30.2 76.6 30.2 79.5 22.4 91.5 22.4 89.7 17.5 81.2 17.5 85.4 6.3 94.1 30.2 100.6 30.2 88.9 0.7 81.4 0.7 70 30.2 "/></svg>
