<svg height="64" viewBox="0 0 46 64" width="46" xmlns="http://www.w3.org/2000/svg"><path d="m2.881 27.428h40.234a2.87 2.87 0 0 0 2.666-1.759 2.84 2.84 0 0 0 -.63-3.118l-20.125-21.711a2.833 2.833 0 0 0 -4.028 0l-20.154 21.711a2.798 2.798 0 0 0 0 4.003c.528.56 1.266.877 2.037.874zm40.234 9.143h-40.235a2.787 2.787 0 0 0 -2.037.828 2.798 2.798 0 0 0 0 4.003l20.153 21.759a2.833 2.833 0 0 0 4.028 0l20.127-21.713a2.84 2.84 0 0 0 .629-3.118 2.87 2.87 0 0 0 -2.666-1.759z" fill="#3d4551" fill-rule="evenodd"/></svg>