<svg viewBox="0 0 16 16" xmlns="http://www.w3.org/2000/svg"><path d="m8 .03093333c4.4181818 0 8 3.50186667 8 7.82222223 0 4.32000004-3.5818182 7.82186664-8 7.82186664-4.41818182 0-8-3.5018666-8-7.82186664 0-4.32035556 3.58181818-7.82222223 8-7.82222223zm4.7236364 4.6656c-.212.25635556-.5363637-.1952-.8236364-.34133333-.2869091-.14648889-.3494545.34133333-.6861818.90275556-.3370909.56142222-.5367273.30506666-.8363637 0-.2992727-.30506667-.1123636-.57351112.2-.69546667.3116364-.12195556.3367273-.17066667.112-.41493333-.2243636-.24391112-.3243636-.14648889-.0996363-.34168889.2243636-.1952.3618182-.17066667.8487273-.46364445.4865454-.29297778-.0749091-.56142222-.3996364-.34737778-.3243636.21368889-.7363636-.43342222-.8236364-.97813333-.0872727-.54506667.1749091-.37048889.4741818-.56604444.0716364-.04622223.0298182-.1568-.0723636-.29688889-.81345454-.30471111-1.69527272-.4736-2.6170909-.4736-.91054545 0-1.78254545.16462222-2.58763636.46257778-.14472728.1952-.17527273.352.12290909.33244444.74872727-.04871111.76145454-.20728889 1.02363636.1344.26181818.34168889.13709091 1.04924444-.33709091.85404444s-1.26036363-.5248-1.46-.13404444c-.2.3904.08727273.48782222.47418182.256.38654545-.23182222.69890909-.12195556.77345455.25635556.07490909.37831111.05018181 1.1104-.37418182.97635555-.42436364-.1344-.56181818.07288889-.312.28053333.24945454.20728889-.02509091.3296-.412.17066667-.38690909-.15857778-.37418182.3296-.89854546.30506667-.524-.02417778-.56145454.53688889-.72363636.74453333-.16218182.20728889-.18727273.87857778-.22472727 1.03715556-.03745455.15857777-.19963637.28053333-.28690909-.21973334-.08763637-.50026666.02472727-.72-.43672728-.75626666-.46181818-.03697778-.92363636.91164444-.68654545 1.11466666.23709091.20302223.56145454-.18737777.53672727.10524445-.02509091.29297778-.18727273 1.62311111.29927273 1.68391111.48690909.06115555.81127273.01244444 1.21054545.2688.39927273.256 1.14836364.28053333 1.68472728 1.1104.53672727.82951111 1.16072727.92728891 1.76 1.06168891.59890909.1340444.53636363.4636444.22436363.9027555-.312.4394667-.13709091.8906667-1.18545454 1.2323556-1.04836364.3416889-1.12327273 1.1960889-1.08581819 1.3546667.00763637.0323555-.00654545.1091555-.0330909.2101333.89927272.3854222 1.89163636.6008889 2.93454545.6008889 2.0716364 0 3.944-.8455111 5.2792727-2.2001778-.1749091-.5290667-.3498182-1.1335111-.3556363-1.4542222-.0127273-.6464.1745454-.6954667-.0625455-1.1224889-.2370909-.42702223-.724-.0120889-1.6723636-.1344-.9483637-.12195557-.7985455-.70755557-1.46000003-1.5128889-.66145454-.80533333.61127273-1.46453333.96072723-2.29404444.3494546-.82986667 1.872-.51271112 2.209091-.45155556.3367272.06115556.212-.15857778.9236363-.67128889.7112727-.51235555-.3494545-.52444444-.6367273-.71964444-.286909-.19555556-.2494545-.02453334-.4618181.23146666zm-9.18509095 7.71235557c-.06218181-.5980445-.51163636-.9276445-1.03563636-2.0380445-.52436364-1.11039996-.17490909-1.23235551-.08763636-1.31768884.08763636-.08568889-.58654546-.43946667-.56145455-1.29351112.02509091-.8544-.71127273-.65884444-.57418182-1.56195555.11781819-.7744.27054546-1.31342222.19418182-1.61351111-.516.98097778-.80945454 2.09173333-.80945454 3.26897778 0 2.64071114 1.46836363 4.95146664 3.648 6.19626664l-.03745455-.1642666s-.67381818-.8785778-.73636364-1.4762667zm4.94218182-10.71395557c-.19963636.62222223-.21963636.4384-.44945454.57351111-.24872728.14613334-.37418182.24391112-.58654546.53688889-.212.29297778-.69890909.23182223-.43090909-.08533333.26763637-.31751111.16909091-1.17155556.01927273-1.40337778 0 0-.19963636-.18311111.24945454-.25635555.44945455-.07324445 1.39781819.01244444 1.19818182.63466666z"/></svg>