<svg viewBox="0 0 16 16" xmlns="http://www.w3.org/2000/svg"><path d="m15.002 11.277c0-.721 0-1.471 0-2.014 0-1.456-.824-2.25-2.25-2.25-1.428 0-3.5 0-3.5 0-.139 0-.25-.112-.25-.25v-2.04c.596-.346 1-.984 1-1.723 0-1.104-.895-2-2-2-1.106 0-2.002.896-2.002 2 0 .738.405 1.376 1 1.722v2.042c0 .138-.112.25-.25.25 0 0-2.138 0-3.5 0s-2.25.918-2.25 2.252v2.012c-.595.353-1 .984-1 1.729 0 1.104.896 2 2 2s2-.896 2-2c0-.732-.405-1.377-1-1.729v-2.012c0-.139.112-.25.25-.25h3.536c.118.018.214.11.214.234v2.027c-.595.347-1 .983-1 1.723 0 1.104.896 2 2.002 2 1.105 0 2-.896 2-2 0-.738-.404-1.376-1-1.723v-2.027c0-.124.098-.216.215-.234h3.535c.137 0 .25.111.25.25v2.012c-.596.353-1 .984-1 1.729 0 1.104.896 2 2 2s2-.896 2-2c0-.745-.404-1.384-1-1.73z"/></svg>