<svg viewBox="0 0 16 16" xmlns="http://www.w3.org/2000/svg" xmlns:xlink="http://www.w3.org/1999/xlink"><clipPath id="a"><path d="m0 0h16v16h-16z"/></clipPath><g clip-path="url(#a)"><path clip-rule="evenodd" d="m14.2532 12.2177c.0691-.1283.1975-.385.1975-.385.78-1.7772.8392-3.85062-.0198-5.7463-1.0663-2.35972-3.2878-3.83085-5.70674-4.09743l.89847-.61215c.34557-.23696.43447-.701004.19747-1.046571-.23696-.3455663-.70101-.434426-1.04658-.197466l-2.49795 1.708087c-.34557.23696-.43443.70101-.19747 1.04657l1.74758 2.56707c.23696.34556.70101.43442 1.04658.19746.34556-.23696.43442-.701.19746-1.04657l-.82936-1.21442c2.07344.10861 3.97894 1.32303 4.87744 3.29769.7405 1.61923.6121 3.41613-.158 4.91693-.0888.1678-.1777.3357-.2764.4937-.0297.0493-.0692.0987-.1086.1481-.553.7701-1.3033 1.4118-2.2215 1.8364-1.70813.78-3.61368.6121-5.15392-.2765-.04937-.0296-.10861-.0592-.15798-.0888-.21721-.1382-.42455-.2863-.62202-.4443-.03949-.0296-.08886-.0691-.12835-.1086-.17772-.158-.34557-.3258-.51341-.5036-.36531-.4048-.68126-.8589-.91822-1.3822-1.05645-2.33013-.37519-5.03543 1.52049-6.6744.2962-.2567.33569-.71088.07899-1.00708-.25671-.2962-.71088-.33569-1.00708-.07898-2.33998 2.01415-3.218707 5.39083-1.87593 8.33306.2567.5727 1.1453 1.718 1.19467 1.7772.18759.2074.37519.395.58253.5826.06911.0691.1481.1283.22708.1875.22709.1876.46405.3555.71088.5135.08886.0493.17772.0987.26658.1481.18759.0987.56278.2863.56278.2863 1.79695.8195 3.90984.9083 5.83511.0296.4838-.2172.9084-.4937 1.3132-.7997.0987-.0297 1.1255-1.017 1.4711-1.5107.0494-.0789.1086-.1481.158-.227.1283-.1975.2369-.4147.3455-.6221z" fill-rule="evenodd"/></g></svg>
