<svg viewBox="0 0 18 14" xmlns="http://www.w3.org/2000/svg" xmlns:xlink="http://www.w3.org/1999/xlink"><clipPath id="a"><path d="m0 .117676h18v13.7647h-18z"/></clipPath><g clip-path="url(#a)"><path d="m12.2143 6.99324s-.0064-.06747-.0064-.10121c0-.17543-.0193-.35086-.0515-.53304-.0128-.08772-.045-.16869-.0642-.2564-.0258-.10122-.0515-.20917-.09-.31039-.0258-.07422-.0643-.14844-.0965-.22266-.045-.10121-.09-.20917-.1414-.30363-.0321-.06073-.0771-.12146-.1157-.17544-.0643-.10121-.1286-.20242-.2057-.29013-.0386-.04724-.0772-.08097-.1157-.1282-.09-.09447-.1736-.19568-.2765-.27665-.0321-.02699-.0707-.05398-.1028-.08097-.1093-.08771-.225-.17543-.3472-.24965-.0321-.02024-.0643-.03374-.09-.04723-.1285-.07422-.2635-.1417-.405-.19568-.0257-.01349-.0578-.01349-.0835-.02699-.32147-.1147-.66862-.18218-1.02219-.18218-1.77428 0-3.21428 1.50467-3.22071 3.36696 0 .03373.00643.06747.00643.10121 0 .17543.01928.35086.05142.53304.01286.08772.045.16869.06429.25641.02571.10121.05143.20916.09.31038.02571.07422.06429.14844.09643.22266.045.10121.09.20917.14143.30363.03214.06073.07714.11471.11571.17544.06429.10121.12857.20242.20572.29013.03857.04724.07714.08097.11571.12821.09.09446.17357.19567.27643.27664.03214.02699.07071.05398.10286.08097.10928.08771.225.17543.34714.24965.03214.02024.05786.03374.09.04723.12857.07425.26357.14165.405.19565.02571.0135.05786.0135.08357.027.32143.1147.66857.1822 1.02214.1822 1.77432 0 3.21432-1.50467 3.22072-3.36696zm-5.14286-.00674c0-1.12007.86143-2.02423 1.92857-2.02423.93214 0 1.70999.69499 1.88999 1.61938.0257.13495.0386.2699.0386.41159 0 1.12007-.8614 2.02422-1.92859 2.02422-.93214 0-1.71-.69498-1.89-1.61937-.02571-.13495-.03857-.2699-.03857-.41159z"/><path d="m5.36149 2.22287c-.25071-.26314-.65571-.26314-.90643 0-2.50714 2.63149-2.50714 6.90935 0 9.54083.25072.2632.65572.2632.90643 0 .25072-.2631.25072-.6882 0-.9514-2.01214-2.10517-2.01214-5.5261 0-7.63129.25072-.26315.25072-.68824 0-.95139z"/><path d="m13.5449 2.22287c-.2314-.28339-.6364-.31713-.9064-.07422s-.3022.66799-.0708.95139c.0193.02699.045.05397.0708.07422 2.0121 2.10519 2.0121 5.52612 0 7.63134-.2508.2631-.2508.6882 0 .9514.2507.2631.6557.2631.9064 0 2.5071-2.63153 2.5071-6.90939 0-9.54087z"/><path d="m1.28561 6.99338c0-2.14567.81-4.21038 2.25643-5.72855.25072-.26314.25072-.688231 0-.95138-.25071-.2631483-.65571-.2631483-.90643 0-3.516426 3.69083-3.516426 9.66903 0 13.35985.12215.1282.28286.1957.45643.1957.16714 0 .32786-.0742.45-.1957.25072-.2631.25072-.6882 0-.9514-1.44643-1.5181-2.25643-3.58284-2.25643-5.72852z"/><path d="m15.3642.313328c-.2507-.2631484-.6557-.2631484-.9064 0-.2507.263149-.2507.688232 0 .951382 3.015 3.15779 3.0279 8.28582.0193 11.45039 0 0-.0129.0135-.0193.0202-.2507.2631-.2507.6882 0 .9514.1222.1214.2829.1957.45.1957.1736 0 .3343-.0675.4564-.1957 3.5165-3.69085 3.5165-9.66905 0-13.359877z"/></g></svg>
