<svg viewBox="0 0 16 16" xmlns="http://www.w3.org/2000/svg"><path d="m.656 9.023c0 .274.224.5.499.5l4.853.001c.274-.001.501.226.5.5l.001 4.853c-.001.273.227.5.501.5l1.995-.009c.273-.003.497-.229.5-.503l.002-4.806c0-.272.228-.5.499-.502l4.831-.021c.271-.005.497-.23.501-.502l.008-1.998c0-.276-.225-.5-.499-.5h-4.852c-.275 0-.502-.228-.501-.5l-.001-4.852c0-.275-.225-.499-.5-.499l-1.996.008c-.275.001-.501.227-.502.502l-.019 4.831c-.001.274-.227.5-.501.5l-4.808-.001c-.275.001-.502.227-.502.501z"/></svg>
