<svg width="16" height="16" viewBox="0 0 16 16" fill="none" xmlns="http://www.w3.org/2000/svg">
<g clip-path="url(#clip0_907_7809)">
<path fill-rule="evenodd" clip-rule="evenodd" d="M14.2532 12.2177C14.3223 12.0894 14.4507 11.8327 14.4507 11.8327C15.2307 10.0555 15.2899 7.98208 14.4309 6.0864C13.3646 3.72668 11.1431 2.25555 8.72416 1.98897L9.62263 1.37682C9.9682 1.13986 10.0571 0.675816 9.8201 0.330249C9.58314 -0.0153173 9.11909 -0.104177 8.77352 0.132783L6.27557 1.84087C5.93 2.07783 5.84114 2.54188 6.0781 2.88744L7.82568 5.45451C8.06264 5.80007 8.52669 5.88893 8.87226 5.65197C9.21782 5.41501 9.30668 4.95097 9.06972 4.6054L8.24036 3.39098C10.3138 3.49959 12.2193 4.71401 13.1178 6.68867C13.8583 8.3079 13.7299 10.1048 12.9598 11.6056C12.871 11.7734 12.7821 11.9413 12.6834 12.0993C12.6537 12.1486 12.6142 12.198 12.5748 12.2474C12.0218 13.0175 11.2715 13.6592 10.3533 14.0838C8.64517 14.8638 6.73962 14.6959 5.19938 13.8073C5.15001 13.7777 5.09077 13.7481 5.0414 13.7185C4.82419 13.5803 4.61685 13.4322 4.41938 13.2742C4.37989 13.2446 4.33052 13.2051 4.29103 13.1656C4.11331 13.0076 3.94546 12.8398 3.77762 12.662C3.41231 12.2572 3.09636 11.8031 2.8594 11.2798C1.80295 8.94967 2.48421 6.24437 4.37989 4.6054C4.67609 4.3487 4.71558 3.89452 4.45888 3.59832C4.20217 3.30212 3.748 3.26263 3.4518 3.51934C1.11182 5.53349 0.233093 8.91017 1.57587 11.8524C1.83257 12.4251 2.72117 13.5704 2.77054 13.6296C2.95813 13.837 3.14573 14.0246 3.35307 14.2122C3.42218 14.2813 3.50117 14.3405 3.58015 14.3997C3.80724 14.5873 4.0442 14.7552 4.29103 14.9132C4.37989 14.9625 4.46875 15.0119 4.55761 15.0613C4.7452 15.16 5.12039 15.3476 5.12039 15.3476C6.91734 16.1671 9.03023 16.2559 10.9555 15.3772C11.4393 15.16 11.8639 14.8835 12.2687 14.5775C12.3674 14.5478 13.3942 13.5605 13.7398 13.0668C13.7892 12.9879 13.8484 12.9187 13.8978 12.8398C14.0261 12.6423 14.1347 12.4251 14.2433 12.2177H14.2532Z" fill="#55565B"/>
</g>
<defs>
<clipPath id="clip0_907_7809">
<rect width="16" height="16" fill="white"/>
</clipPath>
</defs>
</svg>
