<svg width="18" height="14" viewBox="0 0 18 14" fill="none" xmlns="http://www.w3.org/2000/svg">
<g clip-path="url(#clip0_1016_4125)">
<path d="M12.2143 6.99324C12.2143 6.99324 12.2079 6.92577 12.2079 6.89203C12.2079 6.7166 12.1886 6.54117 12.1564 6.35899C12.1436 6.27127 12.1114 6.1903 12.0922 6.10259C12.0664 6.00137 12.0407 5.89342 12.0022 5.7922C11.9764 5.71798 11.9379 5.64376 11.9057 5.56954C11.8607 5.46833 11.8157 5.36037 11.7643 5.26591C11.7322 5.20518 11.6872 5.14445 11.6486 5.09047C11.5843 4.98926 11.52 4.88805 11.4429 4.80034C11.4043 4.7531 11.3657 4.71937 11.3272 4.67214C11.2372 4.57767 11.1536 4.47646 11.0507 4.39549C11.0186 4.3685 10.98 4.34151 10.9479 4.31452C10.8386 4.22681 10.7229 4.13909 10.6007 4.06487C10.5686 4.04463 10.5364 4.03113 10.5107 4.01764C10.3822 3.94342 10.2472 3.87594 10.1057 3.82196C10.08 3.80847 10.0479 3.80847 10.0222 3.79497C9.70073 3.68027 9.35358 3.61279 9.00001 3.61279C7.22573 3.61279 5.78573 5.11746 5.7793 6.97975C5.7793 7.01348 5.78573 7.04722 5.78573 7.08096C5.78573 7.25639 5.80501 7.43182 5.83715 7.614C5.85001 7.70172 5.88215 7.78269 5.90144 7.87041C5.92715 7.97162 5.95287 8.07957 5.99144 8.18079C6.01715 8.25501 6.05573 8.32923 6.08787 8.40345C6.13287 8.50466 6.17787 8.61262 6.2293 8.70708C6.26144 8.76781 6.30644 8.82179 6.34501 8.88252C6.4093 8.98373 6.47358 9.08494 6.55073 9.17265C6.5893 9.21989 6.62787 9.25362 6.66644 9.30086C6.75644 9.39532 6.84001 9.49653 6.94287 9.5775C6.97501 9.60449 7.01358 9.63148 7.04573 9.65847C7.15501 9.74618 7.27073 9.8339 7.39287 9.90812C7.42501 9.92836 7.45073 9.94186 7.48287 9.95535C7.61144 10.0296 7.74644 10.097 7.88787 10.151C7.91358 10.1645 7.94573 10.1645 7.97144 10.178C8.29287 10.2927 8.64001 10.3602 8.99358 10.3602C10.7679 10.3602 12.2079 8.85553 12.2143 6.99324ZM7.07144 6.9865C7.07144 5.86643 7.93287 4.96227 9.00001 4.96227C9.93215 4.96227 10.71 5.65726 10.89 6.58165C10.9157 6.7166 10.9286 6.85155 10.9286 6.99324C10.9286 8.11331 10.0672 9.01746 9.00001 9.01746C8.06787 9.01746 7.29001 8.32248 7.11001 7.39809C7.0843 7.26314 7.07144 7.12819 7.07144 6.9865Z" fill="#55565B"/>
<path d="M5.36149 2.22287C5.11078 1.95973 4.70578 1.95973 4.45506 2.22287C1.94792 4.85436 1.94792 9.13222 4.45506 11.7637C4.70578 12.0269 5.11078 12.0269 5.36149 11.7637C5.61221 11.5006 5.61221 11.0755 5.36149 10.8123C3.34935 8.70713 3.34935 5.2862 5.36149 3.18101C5.61221 2.91786 5.61221 2.49277 5.36149 2.22962V2.22287Z" fill="#55565B"/>
<path d="M13.5449 2.22287C13.3135 1.93948 12.9085 1.90574 12.6385 2.14865C12.3685 2.39156 12.3363 2.81664 12.5677 3.10004C12.587 3.12703 12.6127 3.15401 12.6385 3.17426C14.6506 5.27945 14.6506 8.70038 12.6385 10.8056C12.3877 11.0687 12.3877 11.4938 12.6385 11.757C12.8892 12.0201 13.2942 12.0201 13.5449 11.757C16.052 9.12547 16.052 4.84761 13.5449 2.21613V2.22287Z" fill="#55565B"/>
<path d="M1.28561 6.99338C1.28561 4.84771 2.09561 2.783 3.54204 1.26483C3.79276 1.00169 3.79276 0.576599 3.54204 0.31345C3.29133 0.0503017 2.88633 0.0503017 2.63561 0.31345C-0.880816 4.00428 -0.880816 9.98248 2.63561 13.6733C2.75776 13.8015 2.91847 13.869 3.09204 13.869C3.25918 13.869 3.4199 13.7948 3.54204 13.6733C3.79276 13.4102 3.79276 12.9851 3.54204 12.7219C2.09561 11.2038 1.28561 9.13906 1.28561 6.99338Z" fill="#55565B"/>
<path d="M15.3642 0.313328C15.1135 0.0501796 14.7085 0.0501796 14.4578 0.313328C14.2071 0.576477 14.2071 1.00156 14.4578 1.26471C17.4728 4.4225 17.4857 9.55053 14.4771 12.7151C14.4771 12.7151 14.4642 12.7286 14.4578 12.7353C14.2071 12.9984 14.2071 13.4235 14.4578 13.6867C14.58 13.8081 14.7407 13.8824 14.9078 13.8824C15.0814 13.8824 15.2421 13.8149 15.3642 13.6867C18.8807 9.99585 18.8807 4.01765 15.3642 0.326823V0.313328Z" fill="#55565B"/>
</g>
<defs>
<clipPath id="clip0_1016_4125">
<rect width="18" height="13.7647" fill="white" transform="translate(0 0.117676)"/>
</clipPath>
</defs>
</svg>
