<svg width="17" height="17" viewBox="0 0 17 17" fill="none" xmlns="http://www.w3.org/2000/svg">
<path d="M7.99637 3.23016L15.2197 10.4535C15.4522 10.686 15.8269 10.6881 16.0569 10.4581C16.2868 10.2281 16.2848 9.85346 16.0523 9.62098L8.82892 2.39761L11.2636 2.26703C11.5904 2.26881 11.8539 2.00525 11.8521 1.67846C11.8503 1.35166 11.5839 1.0852 11.2571 1.08341L7.32972 1.20606C7.03807 1.20424 6.80277 1.43953 6.80459 1.73118L6.82424 5.51626C6.82603 5.84305 7.09249 6.10952 7.41928 6.1113C7.74607 6.11309 8.00964 5.84953 8.00785 5.52273L7.99637 3.23016Z" fill="#55565B"/>
<path d="M9.83444 13.7698L2.61108 6.54648C2.3786 6.314 2.0039 6.31195 1.77395 6.5419C1.544 6.77185 1.54605 7.14654 1.77853 7.37903L9.00189 14.6024L6.56725 14.733C6.24046 14.7312 5.97689 14.9948 5.97868 15.3215C5.98047 15.6483 6.24693 15.9148 6.57372 15.9166L10.5011 15.7939C10.7927 15.7958 11.028 15.5605 11.0262 15.2688L11.0066 11.4837C11.0048 11.1569 10.7383 10.8905 10.4115 10.8887C10.0847 10.8869 9.82117 11.1505 9.82296 11.4773L9.83444 13.7698Z" fill="#55565B"/>
</svg>
